<?xml version="1.0" encoding="UTF-8"?>
<svg width="196px" height="41px" viewBox="0 0 196 41" version="1.1" xmlns="http://www.w3.org/2000/svg" xmlns:xlink="http://www.w3.org/1999/xlink">
    <title>D9E56B75-2714-484F-AD79-848E5CBC149E</title>
    <g id="styles" stroke="none" stroke-width="1" fill="none" fill-rule="evenodd">
        <g id="icon-sheet" transform="translate(-242.000000, -112.000000)">
            <g id="logo/meet-pronto" transform="translate(241.999779, 112.000000)">
                <path d="M24.3286384,8.16911111 L22.7390452,8.16911111 C21.0425932,11.0124444 17.3041977,17.3924444 16.8651356,17.8641111 L13.1859831,12.2085556 L9.751,12.2085556 L15.3181751,22.1157778 C15.5246949,22.4874444 15.7583446,22.7452222 15.9947627,22.7452222 C16.3120169,22.7452222 16.7350226,22.3224444 16.9487401,21.988 C17.2095198,21.5024444 22.264548,11.8168889 22.5413842,11.3624444 C22.6150226,11.2407778 23.3508531,9.91911111 24.3286384,8.16911111" id="Fill-1" fill="#2EB598"></path>
                <path d="M10.3132542,27.3173333 L8.33775141,27.3173333 C7.07316384,27.3173333 6.71770621,26.6828889 6.51949153,24.4234444 C6.40266667,23.0351111 6.44142373,14.669 6.44142373,14.1945556 C6.44142373,13.8467778 6.48294915,7.43233333 6.56766102,3.78066667 L6.57319774,3.72344444 C6.57319774,3.05788889 7.37879096,1.73177778 7.41311864,1.35622222 C7.42419209,0.889555556 6.99122034,0.661777778 6.39768362,0.661777778 C6.08651977,0.661777778 6.08541243,0.675111111 5.77037288,0.675111111 C2.41179661,0.675111111 1.34487006,0.555666667 0.949548023,0.555666667 C0.712576271,0.555666667 0.672711864,0.675111111 0.672711864,0.792888889 L0.672711864,1.824 C0.672711864,1.98233333 0.712576271,2.10177778 0.949548023,2.10177778 L3.35857627,2.10177778 C4.97862147,2.10177778 4.94041808,2.65677778 4.97862147,3.569 C5.01903955,4.71788889 5.01903955,10.7051111 5.01903955,11.2606667 C5.01903955,11.9734444 4.90055367,22.1228889 4.42716384,24.9384444 C4.18853107,26.2862222 3.83362712,27.3173333 2.33262147,27.3173333 L0.238632768,27.3173333 C0.0404180791,27.3173333 2.97539771e-14,27.4351111 2.97539771e-14,27.5545556 L2.97539771e-14,28.5067778 C2.97539771e-14,28.8234444 0.0404180791,28.8634444 0.357672316,28.8634444 C0.712576271,28.8634444 2.09454237,28.744 5.45367232,28.744 C8.73307345,28.744 9.8,28.8634444 10.2340791,28.8634444 C10.5513333,28.8634444 10.5895367,28.744 10.5895367,28.5856667 L10.5895367,27.5951111 C10.5895367,27.4351111 10.5513333,27.3173333 10.3132542,27.3173333" id="Fill-3" fill="#FFFFFF"></path>
                <path d="M34.0514565,27.3173333 L32.7868689,27.3173333 L31.720496,27.3173333 C30.7327446,27.3173333 30.3767333,26.6828889 30.3767333,25.1756667 C30.3767333,24.3828889 30.2576938,17.9601111 30.2576938,15.9784444 L30.2576938,13.2023333 C30.2576938,10.5467778 30.3767333,4.87622222 30.3767333,3.72733333 C30.3767333,2.81511111 30.4963266,2.10177778 31.681739,2.10177778 L32.0759537,2.10177778 L33.418609,2.10177778 C33.6954452,2.10177778 33.7358633,1.98233333 33.7358633,1.74511111 L33.7358633,0.832888889 C33.7358633,0.675111111 33.6954452,0.555666667 33.4994452,0.555666667 C33.315626,0.555666667 32.9468802,0.576777778 32.2160328,0.601222222 C31.4945977,0.625666667 30.3889141,0.652333333 28.7002136,0.665666667 C28.2362362,0.669 27.7191062,0.671777778 27.1621119,0.672888889 C26.9611288,0.673444444 26.7861684,0.674555556 26.5730045,0.674555556 C26.0359424,0.690111111 25.6555695,0.901777778 25.6345299,1.31511111 C25.6334226,1.33288889 25.6118294,1.33733333 25.6123831,1.35622222 C25.6461571,1.73177778 26.4511966,3.05788889 26.4511966,3.72344444 L26.4567333,3.78066667 C26.5419989,7.43233333 26.584078,13.8473333 26.584078,14.1945556 C26.584078,14.669 26.622835,23.0351111 26.5049028,24.4234444 C26.3072418,26.6828889 25.9517842,27.3173333 24.6877503,27.3173333 L22.7521119,27.3173333 L22.7122475,27.3173333 C22.6613096,27.3173333 22.6485751,27.3412222 22.6142475,27.3512222 C22.5694,27.364 22.508496,27.3678889 22.4863492,27.3956667 C22.4486994,27.4401111 22.4354113,27.5017778 22.4354113,27.5951111 L22.4354113,28.5067778 L22.4354113,28.5856667 C22.4354113,28.6556667 22.4514678,28.7123333 22.4869028,28.7606667 C22.4902249,28.764 22.4880102,28.7706667 22.4913322,28.7745556 C22.5118181,28.8012222 22.5738294,28.8006667 22.6103718,28.8151111 C22.6546655,28.8328889 22.6773661,28.8634444 22.7521119,28.8634444 C22.7615243,28.8634444 22.7781345,28.8623333 22.7881006,28.8623333 C22.7892079,28.8623333 22.7892079,28.8634444 22.7908689,28.8634444 C22.8351627,28.8634444 22.892191,28.8612222 22.9514339,28.859 C23.4724395,28.8395556 24.6279537,28.744 27.5718294,28.744 C27.6786881,28.744 27.7440215,28.7462222 27.8475582,28.7462222 C28.0463266,28.7456667 28.2284847,28.744 28.4416486,28.744 C30.8866655,28.744 32.1612192,28.7817778 32.9103379,28.8145556 C33.4922475,28.8406667 33.7652079,28.8634444 33.9722814,28.8634444 C34.2895356,28.8634444 34.327739,28.744 34.327739,28.5067778 L34.327739,27.5951111 C34.327739,27.4351111 34.2895356,27.3173333 34.0514565,27.3173333" id="Fill-6" fill="#FFFFFF"></path>
                <path d="M44.4841379,12.9901111 C47.0332452,12.9901111 47.5038667,15.5873333 47.5038667,16.4923333 C47.5038667,16.8462222 47.1904881,17.0434444 46.4452452,17.0434444 L40.3664768,17.0434444 C41.1111661,14.1312222 42.7588949,12.9901111 44.4841379,12.9901111 M51.2688384,24.2834444 L50.7589062,24.0084444 C50.640974,23.969 50.4842847,24.0473333 50.4056633,24.2051111 C49.7390418,25.5034444 48.0525559,26.8812222 45.6606915,26.8812222 C42.5230305,26.8812222 40.0918554,23.969 40.0918554,20.1123333 C40.0918554,19.2073333 40.1311661,18.5778889 40.2092339,18.224 L49.8957311,18.224 C50.5235955,18.224 50.9942169,18.1451111 50.9942169,17.594 C50.9942169,16.059 49.7390418,11.8095556 45.2293808,11.8095556 C43.2688271,11.8095556 41.3077198,12.164 39.6212339,13.8951111 C37.542748,15.9806667 37.150748,18.6173333 37.150748,20.1523333 C37.150748,22.9067778 37.5034373,24.3628889 38.875991,26.3695556 C40.3271661,28.494 42.797652,29.1628889 45.0328271,29.1628889 C48.5237311,29.1628889 50.5629062,26.4484444 51.2688384,24.874 C51.4648384,24.4412222 51.3862169,24.3228889 51.2688384,24.2834444" id="Fill-9" fill="#FFFFFF"></path>
                <path d="M61.1910893,12.9901111 C63.7401966,12.9901111 64.2108181,15.5873333 64.2108181,16.4923333 C64.2108181,16.8462222 63.8974395,17.0434444 63.1521966,17.0434444 L57.0734282,17.0434444 C57.8181175,14.1312222 59.4658463,12.9901111 61.1910893,12.9901111 M67.9757898,24.2834444 L67.4658576,24.0084444 C67.3479254,23.969 67.1912362,24.0473333 67.1126147,24.2051111 C66.4459932,25.5034444 64.7595073,26.8812222 62.3676429,26.8812222 C59.2299819,26.8812222 56.7982531,23.969 56.7982531,20.1123333 C56.7982531,19.2073333 56.8381175,18.5778889 56.9161853,18.224 L66.6026825,18.224 C67.2305469,18.224 67.7011684,18.1451111 67.7011684,17.594 C67.7011684,16.059 66.4459932,11.8095556 61.9363322,11.8095556 C59.9757785,11.8095556 58.0146712,12.164 56.3281853,13.8951111 C54.2496994,15.9806667 53.8576994,18.6173333 53.8576994,20.1523333 C53.8576994,22.9067778 54.2103887,24.3628889 55.5829424,26.3695556 C57.0341175,28.494 59.5046034,29.1628889 61.7397785,29.1628889 C65.2306825,29.1628889 67.2698576,26.4484444 67.9757898,24.874 C68.1717898,24.4412222 68.093722,24.3228889 67.9757898,24.2834444" id="Fill-11" fill="#FFFFFF"></path>
                <path d="M81.3882802,12.2425 L75.9368226,12.2425 L76.1333763,8.38638889 C76.1333763,8.07138889 76.0547548,7.79583333 75.7413763,7.79583333 C75.5060655,7.79583333 75.3095119,7.87472222 75.1921333,8.18916667 C74.6822011,9.52694444 71.663026,12.5569444 70.7212294,13.1086111 C70.2506079,13.3836111 70.0152972,13.5019444 70.0152972,13.8163889 C70.0152972,14.1308333 70.2506079,14.2891667 70.6032972,14.2891667 L72.9962689,14.2891667 C72.9564045,15.9413889 72.9176475,18.6175 72.9176475,19.3258333 L72.9176475,20.1913889 C72.9176475,20.7425 72.7997153,24.2047222 72.7997153,25.8186111 C72.7997153,27.3136111 74.6822011,29.1630556 76.6034441,29.1630556 C78.9565514,29.1630556 80.5649695,27.9825 80.9569695,27.5891667 C81.0749017,27.4713889 81.1529695,27.3136111 81.035591,27.1563889 L80.839591,26.8019444 C80.7216588,26.6447222 80.5649695,26.6058333 80.3684158,26.7230556 C79.8197266,27.0775 78.6824836,27.2347222 77.7799977,27.2347222 C77.0746192,27.2347222 75.7413763,26.7230556 75.7413763,23.7725 L75.7413763,19.8369444 C75.7413763,18.0269444 75.7801333,16.0986111 75.8587548,14.2891667 L80.9176588,14.2891667 C81.1529695,14.2891667 81.231591,14.1708333 81.2709017,13.9736111 L81.6629017,12.5969444 C81.7415232,12.4391667 81.623591,12.2425 81.3882802,12.2425" id="Fill-13" fill="#FFFFFF"></path>
                <g id="Group" transform="translate(92.133731, 7.795833)" fill="#C2E9E0">
                    <path d="M10.5103616,20.108 C8.90249718,20.108 7.68663277,19.833 6.58870056,19.0457778 C5.84345763,18.5341111 5.76538983,17.8263333 5.76538983,16.9602222 L5.76538983,8.34244444 C6.7060791,6.768 8.3139435,5.82411111 9.96111864,5.82411111 C12.5888475,5.82411111 15.0593333,8.02744444 15.0593333,13.5368889 C15.0593333,18.4163333 12.7455367,20.108 10.5103616,20.108 M11.5689831,4.01355556 C8.94180791,4.01355556 6.9020791,5.273 5.84345763,6.65022222 L5.72552542,6.65022222 L5.56883616,4.76133333 C5.56883616,4.17077778 5.49076836,3.97466667 5.29421469,3.97466667 C5.01959322,3.97466667 4.70621469,4.13188889 4.39228249,4.28911111 L0.627310734,6.178 C0.431310734,6.25633333 0.352689266,6.33522222 0.352689266,6.45355556 L0.352689266,6.768 C0.352689266,6.88633333 0.352689266,7.00411111 0.627310734,7.12244444 L1.52924294,7.63411111 C2.66703955,8.26355556 2.94110734,8.81466667 2.94110734,9.75911111 L2.94110734,22.4691111 C2.94110734,26.3252222 2.94110734,28.4507778 2.82372881,29.3163333 C2.74566102,29.9068889 2.66703955,30.3002222 2.00041808,30.3002222 L0.470621469,30.3002222 C0.0780677966,30.3002222 1.37692745e-14,30.4574444 1.37692745e-14,30.6541111 L1.37692745e-14,31.3624444 C1.37692745e-14,31.5985556 0.0780677966,31.7168889 0.352689266,31.7168889 C0.666621469,31.7168889 2.03917514,31.5985556 4.31421469,31.5985556 C6.8240113,31.5985556 8.15725424,31.7168889 8.35325424,31.7168889 C8.62787571,31.7168889 8.7059435,31.5985556 8.7059435,31.3624444 L8.7059435,30.6935556 C8.7059435,30.4574444 8.66718644,30.3002222 8.35325424,30.3002222 L6.62745763,30.3002222 C6.03945763,30.3002222 5.76538983,30.103 5.76538983,29.0013333 L5.76538983,20.698 C6.98070056,21.2096667 8.62787571,21.3674444 9.68705085,21.3674444 C14.5887119,21.3674444 18.1576836,17.2357778 18.1576836,12.0807778 C18.1576836,9.05077778 17.5303729,7.43688889 16.039887,5.94188889 C14.9026441,4.87966667 13.5688475,4.01355556 11.5689831,4.01355556" id="Fill-15"></path>
                    <path d="M31.0216508,3.85638889 C29.335165,3.85638889 27.4919898,5.46972222 26.3154362,7.27972222 L26.1587469,7.27972222 L25.9621932,4.48583333 C25.9621932,4.24972222 25.9234362,4.01361111 25.6875718,4.01361111 C25.5308825,4.01361111 25.3741932,4.05305556 25.1388825,4.17083333 L21.2559785,6.17805556 C21.0212215,6.29638889 20.9426,6.37472222 20.9426,6.53194444 L20.9426,6.76805556 C20.9426,6.92527778 21.0212215,6.96527778 21.2559785,7.04361111 L22.0012215,7.43694444 C23.0991537,8.0275 23.4136395,8.42138889 23.4136395,10.4280556 L23.4136395,14.1269444 C23.4136395,16.1730556 23.4136395,17.5502778 23.3737751,18.8486111 C23.3737751,19.3602778 23.0991537,19.5963889 22.5111537,19.5963889 L20.9819107,19.5963889 C20.6286678,19.5963889 20.5506,19.6758333 20.5506,19.9508333 L20.5506,20.6197222 C20.5506,20.9347222 20.6286678,21.0136111 20.7859107,21.0136111 C21.0212215,21.0136111 22.6678429,20.8952778 25.0995718,20.8952778 C27.2173684,20.8952778 29.0217864,21.0136111 29.2565435,21.0136111 C29.4137864,21.0136111 29.4525435,20.8952778 29.4525435,20.6591667 L29.4525435,19.9508333 C29.4525435,19.7147222 29.4137864,19.5963889 29.1784757,19.5963889 L27.3353006,19.5963889 C26.5114362,19.5963889 26.2368147,19.2030556 26.2368147,17.9836111 L26.2368147,9.79805556 C26.2368147,9.68027778 26.3940576,8.97194444 26.6288147,8.53916667 C27.2959898,7.27972222 28.3153006,6.88638889 28.9426113,6.88638889 C29.4525435,6.88638889 29.9237186,7.00416667 30.2370972,7.20138889 C30.5504757,7.35861111 30.9430294,7.51583333 31.3743401,7.51583333 C32.0802723,7.51583333 33.0215153,6.72916667 33.0215153,5.5875 C33.0215153,4.6825 32.3548938,3.85638889 31.0216508,3.85638889" id="Fill-18"></path>
                    <path d="M42.5514339,20.1866667 C40.7082588,20.1866667 39.5710158,19.4388889 38.6685299,18.1405556 C37.4139085,16.3305556 37.1785977,14.835 37.1785977,12.6311111 C37.1785977,9.64111111 37.7278407,8.02722222 39.2570836,6.45333333 C40.1983266,5.43 41.218191,5.19444444 42.2768124,5.19444444 C44.2766768,5.19444444 47.4536486,7.94888889 47.4536486,12.3166667 C47.4536486,16.5272222 45.531852,20.1866667 42.5514339,20.1866667 M42.590191,4.01388889 C41.2962588,4.01388889 39.3750158,4.32833333 37.335287,5.90277778 C35.0214904,7.71277778 33.9628689,10.2311111 33.9628689,12.2377778 C33.9628689,15.0322222 34.3155582,16.4877778 36.1199763,18.6522222 C37.7665977,20.6194444 40.1983266,21.3672222 42.0808124,21.3672222 C46.9044056,21.3672222 50.7479989,16.9994444 50.7479989,12.7105556 C50.7479989,10.1522222 49.8460667,8.10611111 48.0809593,6.29611111 C46.9044056,5.11555556 44.747852,4.01388889 42.590191,4.01388889" id="Fill-20"></path>
                    <path d="M71.6121989,19.5963889 L70.3570237,19.5963889 C69.8470915,19.5963889 69.4944023,19.3997222 69.4944023,18.7702778 L69.4944023,8.6175 C69.4944023,7.63416667 68.5138486,5.66638889 67.3372949,4.87972222 C66.396052,4.24972222 65.1807412,4.01361111 64.0041876,4.01361111 C62.0430802,4.01361111 59.7680407,5.46972222 58.6313514,6.88638889 L58.5527299,6.88638889 L58.2781085,4.48583333 C58.2393514,4.17083333 58.1601763,4.01361111 57.9647299,4.01361111 C57.807487,4.01361111 57.5727299,4.13194444 57.2582441,4.28916667 L53.885826,6.17805556 C53.689826,6.25638889 53.5331367,6.37472222 53.5331367,6.57194444 L53.5331367,6.76805556 C53.5331367,6.88638889 53.5718938,7.00416667 53.8465153,7.1225 L54.1598938,7.27972222 C55.1410011,7.7525 55.7683119,8.42138889 55.7683119,9.60194444 L55.7683119,18.8097222 C55.7683119,19.4786111 55.4936904,19.5963889 54.9837582,19.5963889 L53.8465153,19.5963889 C53.5331367,19.5963889 53.4545153,19.7147222 53.4545153,19.9508333 L53.4545153,20.6591667 C53.4545153,20.8952778 53.5331367,21.0136111 53.7285831,21.0136111 C53.9644475,21.0136111 55.2196226,20.8952778 57.219487,20.8952778 C59.2979729,20.8952778 60.3565944,21.0136111 60.6312158,21.0136111 C60.8272158,21.0136111 60.9058373,20.8952778 60.9058373,20.6591667 L60.9058373,19.9902778 C60.9058373,19.7147222 60.8272158,19.5963889 60.5132836,19.5963889 L59.5332836,19.5963889 C58.7094192,19.5963889 58.591487,19.3602778 58.591487,18.2980556 L58.591487,10.1525 C58.591487,9.40472222 58.7094192,8.3425 59.4939729,7.47694444 C60.6699729,6.2175 62.0430802,5.94194444 62.6709446,5.94194444 C63.6509446,5.94194444 64.5921876,5.94194444 65.5334305,6.65027778 C66.6706734,7.47694444 66.6706734,8.6175 66.6706734,10.1919444 L66.6706734,15.3863889 C66.6706734,16.4091667 66.6313627,17.6680556 66.5926056,18.6913889 C66.5527412,19.3997222 66.2393627,19.5963889 65.808052,19.5963889 L64.670809,19.5963889 C64.2782554,19.5963889 64.1608768,19.6758333 64.1608768,19.9508333 L64.1608768,20.5802778 C64.1608768,20.8952778 64.2394983,21.0136111 64.4742554,21.0136111 C64.7488768,21.0136111 66.004052,20.8952778 68.0039164,20.8952778 C70.2396452,20.8952778 71.4555096,21.0136111 71.7295774,21.0136111 C71.9648881,21.0136111 72.0435096,20.8558333 72.0435096,20.5802778 L72.0435096,19.9508333 C72.0435096,19.7147222 71.9648881,19.5963889 71.6121989,19.5963889" id="Fill-22"></path>
                    <path d="M85.0636124,4.44666667 L79.6121548,4.44666667 L79.8087085,0.590555556 C79.8087085,0.275555556 79.730087,0 79.4167085,0 C79.1813977,0 78.9848441,0.0788888889 78.8674655,0.393333333 C78.3575333,1.73111111 75.3383582,4.76111111 74.3965616,5.31277778 C73.9259401,5.58777778 73.6906294,5.70611111 73.6906294,6.02055556 C73.6906294,6.335 73.9259401,6.49333333 74.2786294,6.49333333 L76.6716011,6.49333333 C76.6317367,8.14555556 76.5929797,10.8216667 76.5929797,11.53 L76.5929797,12.3955556 C76.5929797,12.9466667 76.4750475,16.4088889 76.4750475,18.0227778 C76.4750475,19.5177778 78.3575333,21.3672222 80.2787763,21.3672222 C82.6318836,21.3672222 84.2403017,20.1866667 84.6323017,19.7933333 C84.7502339,19.6755556 84.8283017,19.5177778 84.7109232,19.3605556 L84.5149232,19.0061111 C84.396991,18.8488889 84.2403017,18.81 84.043748,18.9272222 C83.4950588,19.2816667 82.3578158,19.4388889 81.4553299,19.4388889 C80.7499514,19.4388889 79.4167085,18.9272222 79.4167085,15.9766667 L79.4167085,12.0411111 C79.4167085,10.2311111 79.4554655,8.30277778 79.534087,6.49333333 L84.592991,6.49333333 C84.8283017,6.49333333 84.9069232,6.375 84.9462339,6.17777778 L85.3382339,4.80111111 C85.4168554,4.64333333 85.2989232,4.44666667 85.0636124,4.44666667" id="Fill-24"></path>
                    <path d="M95.2600418,20.1866667 C93.4168667,20.1866667 92.2796237,19.4388889 91.3771379,18.1405556 C90.1225164,16.3305556 89.8872056,14.835 89.8872056,12.6311111 C89.8872056,9.64111111 90.4364486,8.02722222 91.9656915,6.45333333 C92.9069345,5.43 93.9267989,5.19444444 94.9854203,5.19444444 C96.9852847,5.19444444 100.162256,7.94888889 100.162256,12.3166667 C100.162256,16.5272222 98.2404599,20.1866667 95.2600418,20.1866667 M100.789567,6.29611111 C99.6130136,5.11555556 97.4564599,4.01388889 95.2987989,4.01388889 C94.0048667,4.01388889 92.0836237,4.32833333 90.0438949,5.90277778 C87.7300983,7.71277778 86.6714768,10.2311111 86.6714768,12.2377778 C86.6714768,15.0322222 87.0241661,16.4877778 88.8285842,18.6522222 C90.4752056,20.6194444 92.9069345,21.3672222 94.7894203,21.3672222 C99.6130136,21.3672222 103.456607,16.9994444 103.456607,12.7105556 C103.456607,10.1522222 102.554675,8.10611111 100.789567,6.29611111" id="Fill-26"></path>
                </g>
            </g>
        </g>
    </g>
</svg>