<?xml version="1.0" encoding="UTF-8"?>
<svg width="196px" height="40px" viewBox="0 0 196 40" version="1.1" xmlns="http://www.w3.org/2000/svg" xmlns:xlink="http://www.w3.org/1999/xlink">
    <title>906DFCD4-AAE2-4662-821B-46B3AB411DCD</title>
    <g id="styles" stroke="none" stroke-width="1" fill="none" fill-rule="evenodd">
        <g id="icon-sheet" transform="translate(-490.000000, -112.000000)">
            <g id="logo/meet-pronto-copy" transform="translate(489.999779, 112.000000)">
                <path d="M24.3286384,8.16911111 L22.7390452,8.16911111 C21.0425932,11.0124444 17.3041977,17.3924444 16.8651356,17.8641111 L13.1859831,12.2085556 L9.751,12.2085556 L15.3181751,22.1157778 C15.5246949,22.4874444 15.7583446,22.7452222 15.9947627,22.7452222 C16.3120169,22.7452222 16.7350226,22.3224444 16.9487401,21.988 C17.2095198,21.5024444 22.264548,11.8168889 22.5413842,11.3624444 C22.6150226,11.2407778 23.3508531,9.91911111 24.3286384,8.16911111" id="Fill-1" fill="#2EB598"></path>
                <path d="M10.3132542,27.3173333 L8.33775141,27.3173333 C7.07316384,27.3173333 6.71770621,26.6828889 6.51949153,24.4234444 C6.40266667,23.0351111 6.44142373,14.669 6.44142373,14.1945556 C6.44142373,13.8467778 6.48294915,7.43233333 6.56766102,3.78066667 L6.57319774,3.72344444 C6.57319774,3.05788889 7.37879096,1.73177778 7.41311864,1.35622222 C7.42419209,0.889555556 6.99122034,0.661777778 6.39768362,0.661777778 C6.08651977,0.661777778 6.08541243,0.675111111 5.77037288,0.675111111 C2.41179661,0.675111111 1.34487006,0.555666667 0.949548023,0.555666667 C0.712576271,0.555666667 0.672711864,0.675111111 0.672711864,0.792888889 L0.672711864,1.824 C0.672711864,1.98233333 0.712576271,2.10177778 0.949548023,2.10177778 L3.35857627,2.10177778 C4.97862147,2.10177778 4.94041808,2.65677778 4.97862147,3.569 C5.01903955,4.71788889 5.01903955,10.7051111 5.01903955,11.2606667 C5.01903955,11.9734444 4.90055367,22.1228889 4.42716384,24.9384444 C4.18853107,26.2862222 3.83362712,27.3173333 2.33262147,27.3173333 L0.238632768,27.3173333 C0.0404180791,27.3173333 5.68434189e-14,27.4351111 5.68434189e-14,27.5545556 L5.68434189e-14,28.5067778 C5.68434189e-14,28.8234444 0.0404180791,28.8634444 0.357672316,28.8634444 C0.712576271,28.8634444 2.09454237,28.744 5.45367232,28.744 C8.73307345,28.744 9.8,28.8634444 10.2340791,28.8634444 C10.5513333,28.8634444 10.5895367,28.744 10.5895367,28.5856667 L10.5895367,27.5951111 C10.5895367,27.4351111 10.5513333,27.3173333 10.3132542,27.3173333" id="Fill-3" fill="#00153B"></path>
                <path d="M34.0514565,27.3173333 L32.7868689,27.3173333 L31.720496,27.3173333 C30.7327446,27.3173333 30.3767333,26.6828889 30.3767333,25.1756667 C30.3767333,24.3828889 30.2576938,17.9601111 30.2576938,15.9784444 L30.2576938,13.2023333 C30.2576938,10.5467778 30.3767333,4.87622222 30.3767333,3.72733333 C30.3767333,2.81511111 30.4963266,2.10177778 31.681739,2.10177778 L32.0759537,2.10177778 L33.418609,2.10177778 C33.6954452,2.10177778 33.7358633,1.98233333 33.7358633,1.74511111 L33.7358633,0.832888889 C33.7358633,0.675111111 33.6954452,0.555666667 33.4994452,0.555666667 C33.315626,0.555666667 32.9468802,0.576777778 32.2160328,0.601222222 C31.4945977,0.625666667 30.3889141,0.652333333 28.7002136,0.665666667 C28.2362362,0.669 27.7191062,0.671777778 27.1621119,0.672888889 C26.9611288,0.673444444 26.7861684,0.674555556 26.5730045,0.674555556 C26.0359424,0.690111111 25.6555695,0.901777778 25.6345299,1.31511111 C25.6334226,1.33288889 25.6118294,1.33733333 25.6123831,1.35622222 C25.6461571,1.73177778 26.4511966,3.05788889 26.4511966,3.72344444 L26.4567333,3.78066667 C26.5419989,7.43233333 26.584078,13.8473333 26.584078,14.1945556 C26.584078,14.669 26.622835,23.0351111 26.5049028,24.4234444 C26.3072418,26.6828889 25.9517842,27.3173333 24.6877503,27.3173333 L22.7521119,27.3173333 L22.7122475,27.3173333 C22.6613096,27.3173333 22.6485751,27.3412222 22.6142475,27.3512222 C22.5694,27.364 22.508496,27.3678889 22.4863492,27.3956667 C22.4486994,27.4401111 22.4354113,27.5017778 22.4354113,27.5951111 L22.4354113,28.5067778 L22.4354113,28.5856667 C22.4354113,28.6556667 22.4514678,28.7123333 22.4869028,28.7606667 C22.4902249,28.764 22.4880102,28.7706667 22.4913322,28.7745556 C22.5118181,28.8012222 22.5738294,28.8006667 22.6103718,28.8151111 C22.6546655,28.8328889 22.6773661,28.8634444 22.7521119,28.8634444 C22.7615243,28.8634444 22.7781345,28.8623333 22.7881006,28.8623333 C22.7892079,28.8623333 22.7892079,28.8634444 22.7908689,28.8634444 C22.8351627,28.8634444 22.892191,28.8612222 22.9514339,28.859 C23.4724395,28.8395556 24.6279537,28.744 27.5718294,28.744 C27.6786881,28.744 27.7440215,28.7462222 27.8475582,28.7462222 C28.0463266,28.7456667 28.2284847,28.744 28.4416486,28.744 C30.8866655,28.744 32.1612192,28.7817778 32.9103379,28.8145556 C33.4922475,28.8406667 33.7652079,28.8634444 33.9722814,28.8634444 C34.2895356,28.8634444 34.327739,28.744 34.327739,28.5067778 L34.327739,27.5951111 C34.327739,27.4351111 34.2895356,27.3173333 34.0514565,27.3173333" id="Fill-6" fill="#00153B"></path>
                <path d="M44.4841379,12.9901111 C47.0332452,12.9901111 47.5038667,15.5873333 47.5038667,16.4923333 C47.5038667,16.8462222 47.1904881,17.0434444 46.4452452,17.0434444 L40.3664768,17.0434444 C41.1111661,14.1312222 42.7588949,12.9901111 44.4841379,12.9901111 M51.2688384,24.2834444 L50.7589062,24.0084444 C50.640974,23.969 50.4842847,24.0473333 50.4056633,24.2051111 C49.7390418,25.5034444 48.0525559,26.8812222 45.6606915,26.8812222 C42.5230305,26.8812222 40.0918554,23.969 40.0918554,20.1123333 C40.0918554,19.2073333 40.1311661,18.5778889 40.2092339,18.224 L49.8957311,18.224 C50.5235955,18.224 50.9942169,18.1451111 50.9942169,17.594 C50.9942169,16.059 49.7390418,11.8095556 45.2293808,11.8095556 C43.2688271,11.8095556 41.3077198,12.164 39.6212339,13.8951111 C37.542748,15.9806667 37.150748,18.6173333 37.150748,20.1523333 C37.150748,22.9067778 37.5034373,24.3628889 38.875991,26.3695556 C40.3271661,28.494 42.797652,29.1628889 45.0328271,29.1628889 C48.5237311,29.1628889 50.5629062,26.4484444 51.2688384,24.874 C51.4648384,24.4412222 51.3862169,24.3228889 51.2688384,24.2834444" id="Fill-9" fill="#00153B"></path>
                <path d="M61.1910893,12.9901111 C63.7401966,12.9901111 64.2108181,15.5873333 64.2108181,16.4923333 C64.2108181,16.8462222 63.8974395,17.0434444 63.1521966,17.0434444 L57.0734282,17.0434444 C57.8181175,14.1312222 59.4658463,12.9901111 61.1910893,12.9901111 M67.9757898,24.2834444 L67.4658576,24.0084444 C67.3479254,23.969 67.1912362,24.0473333 67.1126147,24.2051111 C66.4459932,25.5034444 64.7595073,26.8812222 62.3676429,26.8812222 C59.2299819,26.8812222 56.7982531,23.969 56.7982531,20.1123333 C56.7982531,19.2073333 56.8381175,18.5778889 56.9161853,18.224 L66.6026825,18.224 C67.2305469,18.224 67.7011684,18.1451111 67.7011684,17.594 C67.7011684,16.059 66.4459932,11.8095556 61.9363322,11.8095556 C59.9757785,11.8095556 58.0146712,12.164 56.3281853,13.8951111 C54.2496994,15.9806667 53.8576994,18.6173333 53.8576994,20.1523333 C53.8576994,22.9067778 54.2103887,24.3628889 55.5829424,26.3695556 C57.0341175,28.494 59.5046034,29.1628889 61.7397785,29.1628889 C65.2306825,29.1628889 67.2698576,26.4484444 67.9757898,24.874 C68.1717898,24.4412222 68.093722,24.3228889 67.9757898,24.2834444" id="Fill-11" fill="#00153B"></path>
                <path d="M81.3882802,12.2425 L75.9368226,12.2425 L76.1333763,8.38638889 C76.1333763,8.07138889 76.0547548,7.79583333 75.7413763,7.79583333 C75.5060655,7.79583333 75.3095119,7.87472222 75.1921333,8.18916667 C74.6822011,9.52694444 71.663026,12.5569444 70.7212294,13.1086111 C70.2506079,13.3836111 70.0152972,13.5019444 70.0152972,13.8163889 C70.0152972,14.1308333 70.2506079,14.2891667 70.6032972,14.2891667 L72.9962689,14.2891667 C72.9564045,15.9413889 72.9176475,18.6175 72.9176475,19.3258333 L72.9176475,20.1913889 C72.9176475,20.7425 72.7997153,24.2047222 72.7997153,25.8186111 C72.7997153,27.3136111 74.6822011,29.1630556 76.6034441,29.1630556 C78.9565514,29.1630556 80.5649695,27.9825 80.9569695,27.5891667 C81.0749017,27.4713889 81.1529695,27.3136111 81.035591,27.1563889 L80.839591,26.8019444 C80.7216588,26.6447222 80.5649695,26.6058333 80.3684158,26.7230556 C79.8197266,27.0775 78.6824836,27.2347222 77.7799977,27.2347222 C77.0746192,27.2347222 75.7413763,26.7230556 75.7413763,23.7725 L75.7413763,19.8369444 C75.7413763,18.0269444 75.7801333,16.0986111 75.8587548,14.2891667 L80.9176588,14.2891667 C81.1529695,14.2891667 81.231591,14.1708333 81.2709017,13.9736111 L81.6629017,12.5969444 C81.7415232,12.4391667 81.623591,12.2425 81.3882802,12.2425" id="Fill-13" fill="#00153B"></path>
                <path d="M102.644093,27.9038333 C101.036228,27.9038333 99.8203638,27.6288333 98.7224316,26.8416111 C97.9771887,26.3299444 97.8991209,25.6221667 97.8991209,24.7560556 L97.8991209,16.1382778 C98.8398102,14.5638333 100.447675,13.6199444 102.09485,13.6199444 C104.722579,13.6199444 107.193064,15.8232778 107.193064,21.3327222 C107.193064,26.2121667 104.879268,27.9038333 102.644093,27.9038333 M103.702714,11.8093889 C101.075539,11.8093889 99.0358102,13.0688333 97.9771887,14.4460556 L97.8592565,14.4460556 L97.7025672,12.5571667 C97.7025672,11.9666111 97.6244994,11.7705 97.4279458,11.7705 C97.1533243,11.7705 96.8399458,11.9277222 96.5260136,12.0849444 L92.7610418,13.9738333 C92.5650418,14.0521667 92.4864203,14.1310556 92.4864203,14.2493889 L92.4864203,14.5638333 C92.4864203,14.6821667 92.4864203,14.7999444 92.7610418,14.9182778 L93.662974,15.4299444 C94.8007706,16.0593889 95.0748384,16.6105 95.0748384,17.5549444 L95.0748384,30.2649444 C95.0748384,34.1210556 95.0748384,36.2466111 94.9574599,37.1121667 C94.8793921,37.7027222 94.8007706,38.0960556 94.1341492,38.0960556 L92.6043525,38.0960556 C92.2117989,38.0960556 92.1337311,38.2532778 92.1337311,38.4499444 L92.1337311,39.1582778 C92.1337311,39.3943889 92.2117989,39.5127222 92.4864203,39.5127222 C92.8003525,39.5127222 94.1729062,39.3943889 96.4479458,39.3943889 C98.9577424,39.3943889 100.290985,39.5127222 100.486985,39.5127222 C100.761607,39.5127222 100.839675,39.3943889 100.839675,39.1582778 L100.839675,38.4893889 C100.839675,38.2532778 100.800918,38.0960556 100.486985,38.0960556 L98.7611887,38.0960556 C98.1731887,38.0960556 97.8991209,37.8988333 97.8991209,36.7971667 L97.8991209,28.4938333 C99.1144316,29.0055 100.761607,29.1632778 101.820782,29.1632778 C106.722443,29.1632778 110.291415,25.0316111 110.291415,19.8766111 C110.291415,16.8466111 109.664104,15.2327222 108.173618,13.7377222 C107.036375,12.6755 105.702579,11.8093889 103.702714,11.8093889" id="Fill-15" fill="#00153B" opacity="0.531696865"></path>
                <path d="M123.155382,11.6522222 C121.468896,11.6522222 119.625721,13.2655556 118.449167,15.0755556 L118.292478,15.0755556 L118.095924,12.2816667 C118.095924,12.0455556 118.057167,11.8094444 117.821303,11.8094444 C117.664614,11.8094444 117.507924,11.8488889 117.272614,11.9666667 L113.38971,13.9738889 C113.154953,14.0922222 113.076331,14.1705556 113.076331,14.3277778 L113.076331,14.5638889 C113.076331,14.7211111 113.154953,14.7611111 113.38971,14.8394444 L114.134953,15.2327778 C115.232885,15.8233333 115.547371,16.2172222 115.547371,18.2238889 L115.547371,21.9227778 C115.547371,23.9688889 115.547371,25.3461111 115.507506,26.6444444 C115.507506,27.1561111 115.232885,27.3922222 114.644885,27.3922222 L113.115642,27.3922222 C112.762399,27.3922222 112.684331,27.4716667 112.684331,27.7466667 L112.684331,28.4155556 C112.684331,28.7305556 112.762399,28.8094444 112.919642,28.8094444 C113.154953,28.8094444 114.801574,28.6911111 117.233303,28.6911111 C119.351099,28.6911111 121.155518,28.8094444 121.390275,28.8094444 C121.547518,28.8094444 121.586275,28.6911111 121.586275,28.455 L121.586275,27.7466667 C121.586275,27.5105556 121.547518,27.3922222 121.312207,27.3922222 L119.469032,27.3922222 C118.645167,27.3922222 118.370546,26.9988889 118.370546,25.7794444 L118.370546,17.5938889 C118.370546,17.4761111 118.527789,16.7677778 118.762546,16.335 C119.429721,15.0755556 120.449032,14.6822222 121.076342,14.6822222 C121.586275,14.6822222 122.05745,14.8 122.370828,14.9972222 C122.684207,15.1544444 123.07676,15.3116667 123.508071,15.3116667 C124.214003,15.3116667 125.155246,14.525 125.155246,13.3833333 C125.155246,12.4783333 124.488625,11.6522222 123.155382,11.6522222" id="Fill-18" fill="#00153B" opacity="0.531696865"></path>
                <path d="M134.685165,27.9825 C132.84199,27.9825 131.704747,27.2347222 130.802261,25.9363889 C129.54764,24.1263889 129.312329,22.6308333 129.312329,20.4269444 C129.312329,17.4369444 129.861572,15.8230556 131.390815,14.2491667 C132.332058,13.2258333 133.351922,12.9902778 134.410544,12.9902778 C136.410408,12.9902778 139.58738,15.7447222 139.58738,20.1125 C139.58738,24.3230556 137.665583,27.9825 134.685165,27.9825 M134.723922,11.8097222 C133.42999,11.8097222 131.508747,12.1241667 129.469018,13.6986111 C127.155221,15.5086111 126.0966,18.0269444 126.0966,20.0336111 C126.0966,22.8280556 126.449289,24.2836111 128.253707,26.4480556 C129.900329,28.4152778 132.332058,29.1630556 134.214544,29.1630556 C139.038137,29.1630556 142.88173,24.7952778 142.88173,20.5063889 C142.88173,17.9480556 141.979798,15.9019444 140.21469,14.0919444 C139.038137,12.9113889 136.881583,11.8097222 134.723922,11.8097222" id="Fill-20" fill="#00153B" opacity="0.531696865"></path>
                <path d="M163.74593,27.3922222 L162.490755,27.3922222 C161.980823,27.3922222 161.628133,27.1955556 161.628133,26.5661111 L161.628133,16.4133333 C161.628133,15.43 160.64758,13.4622222 159.471026,12.6755556 C158.529783,12.0455556 157.314472,11.8094444 156.137919,11.8094444 C154.176811,11.8094444 151.901772,13.2655556 150.765082,14.6822222 L150.686461,14.6822222 L150.41184,12.2816667 C150.373082,11.9666667 150.293907,11.8094444 150.098461,11.8094444 C149.941218,11.8094444 149.706461,11.9277778 149.391975,12.085 L146.019557,13.9738889 C145.823557,14.0522222 145.666868,14.1705556 145.666868,14.3677778 L145.666868,14.5638889 C145.666868,14.6822222 145.705625,14.8 145.980246,14.9183333 L146.293625,15.0755556 C147.274732,15.5483333 147.902043,16.2172222 147.902043,17.3977778 L147.902043,26.6055556 C147.902043,27.2744444 147.627421,27.3922222 147.117489,27.3922222 L145.980246,27.3922222 C145.666868,27.3922222 145.588246,27.5105556 145.588246,27.7466667 L145.588246,28.455 C145.588246,28.6911111 145.666868,28.8094444 145.862314,28.8094444 C146.098179,28.8094444 147.353354,28.6911111 149.353218,28.6911111 C151.431704,28.6911111 152.490325,28.8094444 152.764947,28.8094444 C152.960947,28.8094444 153.039568,28.6911111 153.039568,28.455 L153.039568,27.7861111 C153.039568,27.5105556 152.960947,27.3922222 152.647015,27.3922222 L151.667015,27.3922222 C150.84315,27.3922222 150.725218,27.1561111 150.725218,26.0938889 L150.725218,17.9483333 C150.725218,17.2005556 150.84315,16.1383333 151.627704,15.2727778 C152.803704,14.0133333 154.176811,13.7377778 154.804676,13.7377778 C155.784676,13.7377778 156.725919,13.7377778 157.667162,14.4461111 C158.804405,15.2727778 158.804405,16.4133333 158.804405,17.9877778 L158.804405,23.1822222 C158.804405,24.205 158.765094,25.4638889 158.726337,26.4872222 C158.686472,27.1955556 158.373094,27.3922222 157.941783,27.3922222 L156.80454,27.3922222 C156.411986,27.3922222 156.294608,27.4716667 156.294608,27.7466667 L156.294608,28.3761111 C156.294608,28.6911111 156.373229,28.8094444 156.607986,28.8094444 C156.882608,28.8094444 158.137783,28.6911111 160.137647,28.6911111 C162.373376,28.6911111 163.589241,28.8094444 163.863308,28.8094444 C164.098619,28.8094444 164.177241,28.6516667 164.177241,28.3761111 L164.177241,27.7466667 C164.177241,27.5105556 164.098619,27.3922222 163.74593,27.3922222" id="Fill-22" fill="#00153B" opacity="0.531696865"></path>
                <path d="M177.197344,12.2425 L171.745886,12.2425 L171.94244,8.38638889 C171.94244,8.07138889 171.863818,7.79583333 171.55044,7.79583333 C171.315129,7.79583333 171.118575,7.87472222 171.001197,8.18916667 C170.491264,9.52694444 167.472089,12.5569444 166.530293,13.1086111 C166.059671,13.3836111 165.82436,13.5019444 165.82436,13.8163889 C165.82436,14.1308333 166.059671,14.2891667 166.41236,14.2891667 L168.805332,14.2891667 C168.765468,15.9413889 168.726711,18.6175 168.726711,19.3258333 L168.726711,20.1913889 C168.726711,20.7425 168.608779,24.2047222 168.608779,25.8186111 C168.608779,27.3136111 170.491264,29.1630556 172.412507,29.1630556 C174.765615,29.1630556 176.374033,27.9825 176.766033,27.5891667 C176.883965,27.4713889 176.962033,27.3136111 176.844654,27.1563889 L176.648654,26.8019444 C176.530722,26.6447222 176.374033,26.6058333 176.177479,26.7230556 C175.62879,27.0775 174.491547,27.2347222 173.589061,27.2347222 C172.883682,27.2347222 171.55044,26.7230556 171.55044,23.7725 L171.55044,19.8369444 C171.55044,18.0269444 171.589197,16.0986111 171.667818,14.2891667 L176.726722,14.2891667 C176.962033,14.2891667 177.040654,14.1708333 177.079965,13.9736111 L177.471965,12.5969444 C177.550586,12.4391667 177.432654,12.2425 177.197344,12.2425" id="Fill-24" fill="#00153B" opacity="0.531696865"></path>
                <path d="M187.393773,27.9825 C185.550598,27.9825 184.413355,27.2347222 183.510869,25.9363889 C182.256247,24.1263889 182.020937,22.6308333 182.020937,20.4269444 C182.020937,17.4369444 182.57018,15.8230556 184.099423,14.2491667 C185.040666,13.2258333 186.06053,12.9902778 187.119151,12.9902778 C189.119016,12.9902778 192.295988,15.7447222 192.295988,20.1125 C192.295988,24.3230556 190.374191,27.9825 187.393773,27.9825 M192.923298,14.0919444 C191.746745,12.9113889 189.590191,11.8097222 187.43253,11.8097222 C186.138598,11.8097222 184.217355,12.1241667 182.177626,13.6986111 C179.863829,15.5086111 178.805208,18.0269444 178.805208,20.0336111 C178.805208,22.8280556 179.157897,24.2836111 180.962315,26.4480556 C182.608937,28.4152778 185.040666,29.1630556 186.923151,29.1630556 C191.746745,29.1630556 195.590338,24.7952778 195.590338,20.5063889 C195.590338,17.9480556 194.688406,15.9019444 192.923298,14.0919444" id="Fill-26" fill="#00153B" opacity="0.531696865"></path>
            </g>
        </g>
    </g>
</svg>