<?xml version="1.0" encoding="UTF-8"?>
<svg width="60px" height="60px" viewBox="0 0 60 60" version="1.1" xmlns="http://www.w3.org/2000/svg" xmlns:xlink="http://www.w3.org/1999/xlink">
    <title>icon/60x60/callender</title>
    <g id="icon/60x60/callender" stroke="none" stroke-width="1" fill="none" fill-rule="evenodd">
        <g id="Group" transform="translate(7.000000, 14.000000)">
            <path d="M18,2 C18,3.104 17.104,4 16,4 C14.896,4 14,3.104 14,2 C14,0.896 14.896,0 16,0 C17.104,0 18,0.896 18,2" id="Fill-1" fill="#00153B"></path>
            <path d="M25,2 C25,3.104 24.104,4 23,4 C21.896,4 21,3.104 21,2 C21,0.896 21.896,0 23,0 C24.104,0 25,0.896 25,2" id="Fill-3" fill="#00153B"></path>
            <path d="M32,2 C32,3.104 31.104,4 30,4 C28.896,4 28,3.104 28,2 C28,0.896 28.896,0 30,0 C31.104,0 32,0.896 32,2" id="Fill-5" fill="#00153B"></path>
            <path d="M39,2 C39,3.104 38.104,4 37,4 C35.896,4 35,3.104 35,2 C35,0.896 35.896,0 37,0 C38.104,0 39,0.896 39,2" id="Fill-7" fill="#B4BBC6"></path>
            <path d="M46,2 C46,3.104 45.104,4 44,4 C42.896,4 42,3.104 42,2 C42,0.896 42.896,0 44,0 C45.104,0 46,0.896 46,2" id="Fill-9" fill="#B4BBC6"></path>
            <path d="M4,9 C4,10.104 3.104,11 2,11 C0.896,11 0,10.104 0,9 C0,7.896 0.896,7 2,7 C3.104,7 4,7.896 4,9" id="Fill-11" fill="#00153B"></path>
            <path d="M11,9 C11,10.104 10.104,11 9,11 C7.896,11 7,10.104 7,9 C7,7.896 7.896,7 9,7 C10.104,7 11,7.896 11,9" id="Fill-13" fill="#00153B"></path>
            <path d="M18,9 C18,10.104 17.104,11 16,11 C14.896,11 14,10.104 14,9 C14,7.896 14.896,7 16,7 C17.104,7 18,7.896 18,9" id="Fill-15" fill="#00153B"></path>
            <path d="M25,9 C25,10.104 24.104,11 23,11 C21.896,11 21,10.104 21,9 C21,7.896 21.896,7 23,7 C24.104,7 25,7.896 25,9" id="Fill-17" fill="#00153B"></path>
            <path d="M32,9 C32,10.104 31.104,11 30,11 C28.896,11 28,10.104 28,9 C28,7.896 28.896,7 30,7 C31.104,7 32,7.896 32,9" id="Fill-19" fill="#00153B"></path>
            <path d="M39,9 C39,10.104 38.104,11 37,11 C35.896,11 35,10.104 35,9 C35,7.896 35.896,7 37,7 C38.104,7 39,7.896 39,9" id="Fill-21" fill="#B4BBC6"></path>
            <path d="M46,9 C46,10.104 45.104,11 44,11 C42.896,11 42,10.104 42,9 C42,7.896 42.896,7 44,7 C45.104,7 46,7.896 46,9" id="Fill-23" fill="#B4BBC6"></path>
            <path d="M4,16 C4,17.104 3.104,18 2,18 C0.896,18 0,17.104 0,16 C0,14.896 0.896,14 2,14 C3.104,14 4,14.896 4,16" id="Fill-25" fill="#00153B"></path>
            <path d="M11,16 C11,17.104 10.104,18 9,18 C7.896,18 7,17.104 7,16 C7,14.896 7.896,14 9,14 C10.104,14 11,14.896 11,16" id="Fill-27" fill="#00153B"></path>
            <path d="M18,16 C18,17.104 17.104,18 16,18 C14.896,18 14,17.104 14,16 C14,14.896 14.896,14 16,14 C17.104,14 18,14.896 18,16" id="Fill-29" fill="#00153B"></path>
            <path d="M21,16 C21,17.104 21.896,18 23,18 C24.104,18 25,17.104 25,16 C25,14.896 24.104,14 23,14 C21.896,14 21,14.896 21,16 Z" id="Fill-31" fill="#2EB598"></path>
            <path d="M32,16 C32,17.104 31.104,18 30,18 C28.896,18 28,17.104 28,16 C28,14.896 28.896,14 30,14 C31.104,14 32,14.896 32,16" id="Fill-33" fill="#00153B"></path>
            <path d="M39,16 C39,17.104 38.104,18 37,18 C35.896,18 35,17.104 35,16 C35,14.896 35.896,14 37,14 C38.104,14 39,14.896 39,16" id="Fill-35" fill="#B4BBC6"></path>
            <path d="M46,16 C46,17.104 45.104,18 44,18 C42.896,18 42,17.104 42,16 C42,14.896 42.896,14 44,14 C45.104,14 46,14.896 46,16" id="Fill-37" fill="#B4BBC6"></path>
            <path d="M4,23 C4,24.104 3.104,25 2,25 C0.896,25 0,24.104 0,23 C0,21.896 0.896,21 2,21 C3.104,21 4,21.896 4,23" id="Fill-39" fill="#00153B"></path>
            <path d="M11,23 C11,24.104 10.104,25 9,25 C7.896,25 7,24.104 7,23 C7,21.896 7.896,21 9,21 C10.104,21 11,21.896 11,23" id="Fill-41" fill="#00153B"></path>
            <path d="M18,23 C18,24.104 17.104,25 16,25 C14.896,25 14,24.104 14,23 C14,21.896 14.896,21 16,21 C17.104,21 18,21.896 18,23" id="Fill-43" fill="#00153B"></path>
            <path d="M25,23 C25,24.104 24.104,25 23,25 C21.896,25 21,24.104 21,23 C21,21.896 21.896,21 23,21 C24.104,21 25,21.896 25,23" id="Fill-45" fill="#00153B"></path>
            <path d="M32,23 C32,24.104 31.104,25 30,25 C28.896,25 28,24.104 28,23 C28,21.896 28.896,21 30,21 C31.104,21 32,21.896 32,23" id="Fill-47" fill="#00153B"></path>
            <path d="M39,23 C39,24.104 38.104,25 37,25 C35.896,25 35,24.104 35,23 C35,21.896 35.896,21 37,21 C38.104,21 39,21.896 39,23" id="Fill-49" fill="#B4BBC6"></path>
            <path d="M46,23 C46,24.104 45.104,25 44,25 C42.896,25 42,24.104 42,23 C42,21.896 42.896,21 44,21 C45.104,21 46,21.896 46,23" id="Fill-51" fill="#B4BBC6"></path>
            <path d="M4,30 C4,31.104 3.104,32 2,32 C0.896,32 0,31.104 0,30 C0,28.896 0.896,28 2,28 C3.104,28 4,28.896 4,30" id="Fill-53" fill="#00153B"></path>
            <path d="M11,30 C11,31.104 10.104,32 9,32 C7.896,32 7,31.104 7,30 C7,28.896 7.896,28 9,28 C10.104,28 11,28.896 11,30" id="Fill-55" fill="#00153B"></path>
            <path d="M18,30 C18,31.104 17.104,32 16,32 C14.896,32 14,31.104 14,30 C14,28.896 14.896,28 16,28 C17.104,28 18,28.896 18,30" id="Fill-57" fill="#00153B"></path>
        </g>
    </g>
</svg>