<?xml version="1.0" encoding="UTF-8"?>
<svg width="72px" height="72px" viewBox="0 0 72 72" version="1.1" xmlns="http://www.w3.org/2000/svg" xmlns:xlink="http://www.w3.org/1999/xlink">
    <title>7D502CFC-3BBE-4AE6-AFEB-1BDD66357E9F</title>
    <g id="styles" stroke="none" stroke-width="1" fill="none" fill-rule="evenodd">
        <g id="icon-sheet" transform="translate(-693.000000, -727.000000)">
            <g id="icon/144/car&amp;maitane-copy-2" transform="translate(693.000000, 727.000000)">
                <line x1="26.9997" y1="41.5936189" x2="44.9997" y2="41.5936189" id="Stroke-1" stroke="#FFFFFF" stroke-width="2" stroke-linecap="round" stroke-linejoin="round"></line>
                <path d="M62.361,42.5936189 L64.89,42.1096189 C65.544,41.9146189 66,41.2366189 66,40.4586189 L66,37.5966189 C66,36.9466189 65.679,36.3556189 65.174,36.0666189 C63.358,35.0316189 61.405,33.7526189 59.394,33.2236189 C56.816,32.5436189 47.652,30.5296189 47.652,30.5296189 C47.652,30.5296189 41.82,27.0226189 40.64,26.2976189 C39.462,25.5736189 38.282,25.3546189 37.299,25.2546189 C33.863,24.9066189 27.392,24.5356189 20.825,26.9316189 C11.271,30.4166189 6,31.5936189 6,34.4906189 L6,39.8076189 C6.029,40.4876189 6.456,41.0556189 7.035,41.1876189 L10.482,42.0666189" id="Stroke-2" stroke="#FFFFFF" stroke-width="2" stroke-linecap="round" stroke-linejoin="round"></path>
                <path d="M53.9997,34.4432189 C50.6867,34.4432189 47.9997,37.1302189 47.9997,40.4432189 C47.9997,43.7562189 50.6867,46.4432189 53.9997,46.4432189 C57.3127,46.4432189 59.9997,43.7562189 59.9997,40.4432189 C59.9997,37.1302189 57.3127,34.4432189 53.9997,34.4432189 M53.9997,36.4432189 C56.2057,36.4432189 57.9997,38.2372189 57.9997,40.4432189 C57.9997,42.6492189 56.2057,44.4432189 53.9997,44.4432189 C51.7937,44.4432189 49.9997,42.6492189 49.9997,40.4432189 C49.9997,38.2372189 51.7937,36.4432189 53.9997,36.4432189" id="Fill-4" fill="#FFFFFF"></path>
                <path d="M17.9997,34.4432189 C14.6867,34.4432189 11.9997,37.1302189 11.9997,40.4432189 C11.9997,43.7562189 14.6867,46.4432189 17.9997,46.4432189 C21.3127,46.4432189 23.9997,43.7562189 23.9997,40.4432189 C23.9997,37.1302189 21.3127,34.4432189 17.9997,34.4432189 M17.9997,36.4432189 C20.2057,36.4432189 21.9997,38.2372189 21.9997,40.4432189 C21.9997,42.6492189 20.2057,44.4432189 17.9997,44.4432189 C15.7937,44.4432189 13.9997,42.6492189 13.9997,40.4432189 C13.9997,38.2372189 15.7937,36.4432189 17.9997,36.4432189" id="Fill-6" fill="#FFFFFF"></path>
            </g>
        </g>
    </g>
</svg>