<?xml version="1.0" encoding="UTF-8"?>
<svg width="60px" height="60px" viewBox="0 0 60 60" version="1.1" xmlns="http://www.w3.org/2000/svg" xmlns:xlink="http://www.w3.org/1999/xlink">
    <title>icon/60x60/edit-warrning</title>
    <defs>
        <polygon id="path-1" points="0 0 7.18113307 0 7.18113307 10 0 10"></polygon>
    </defs>
    <g id="icon/60x60/edit-warrning" stroke="none" stroke-width="1" fill="none" fill-rule="evenodd">
        <line x1="25" y1="19" x2="58" y2="19" id="Stroke-5" stroke="#B9B9B9" stroke-width="2" stroke-linecap="round"></line>
        <path d="M14.125,22 L14.125,26.992 C14.125,28.102 13.226,29 12.118,29 L8,29" id="Stroke-10" stroke="#B9B9B9"></path>
        <path d="M22,16 L10.989,16 C6.024,16 2,20.024 2,24.989 L2,35 C2,36.657 3.343,38 5,38 C6.657,38 8,36.657 8,35 L8,25.108 C8,23.392 9.392,22 11.108,22 L22,22 C23.657,22 25,20.657 25,19 C25,17.343 23.657,16 22,16 Z" id="Stroke-1" stroke="#00153B" stroke-width="2"></path>
        <path d="M4.9961,30 L5.0001,24.989 C5.0001,21.687 7.6861,19 10.9891,19 L21.0001,19" id="Stroke-3" stroke="#B9B9B9" stroke-linecap="round"></path>
        <polygon id="Fill-7" fill="#DC0606" points="27 45 57 45 57 21 27 21"></polygon>
        <g id="Group-8" transform="translate(30.000000, 28.000000)">
            <path d="M1.4830283,4.99990522 C1.4830283,5.96951832 1.51910459,6.62540519 1.59028215,6.96756583 C1.65365943,7.31067427 1.78236405,7.58743579 1.97542099,7.79879817 C2.13240163,8.00257805 2.33813403,8.16749758 2.59456824,8.29355676 C2.84515225,8.44141565 3.14643808,8.5153451 3.49647565,8.5153451 C3.85138841,8.5153451 4.15852445,8.44141565 4.41983384,8.29355676 C4.6665177,8.16749758 4.86444982,8.00257805 5.01168011,7.79879817 C5.20473705,7.58743579 5.33734181,7.31067427 5.4094944,6.96756583 C5.47677182,6.62540519 5.51089805,5.96951832 5.51089805,4.99990522 C5.51089805,4.03218774 5.47677182,3.37061399 5.4094944,3.01897522 C5.33734181,2.68629272 5.20473705,2.41332247 5.01168011,2.20101226 C4.86444982,1.99723238 4.6665177,1.8285216 4.41983384,1.6939321 C4.15852445,1.56408166 3.85138841,1.49394347 3.49647565,1.48446534 C3.14643808,1.49394347 2.84515225,1.56408166 2.59456824,1.6939321 C2.33813403,1.8285216 2.13240163,1.99723238 1.97542099,2.20101226 C1.78236405,2.41332247 1.65365943,2.68629272 1.59028215,3.01897522 C1.51910459,3.37061399 1.4830283,4.03218774 1.4830283,4.99990522 M-6.49503811e-16,4.99990522 C-6.49503811e-16,3.85589445 0.0331511914,3.08911342 0.0994535741,2.70050992 C0.171606167,2.31380206 0.281785127,2.00102364 0.429015418,1.76217466 C0.666923968,1.30817205 1.04816267,0.905351354 1.57175648,0.551816958 C2.08657499,0.194491309 2.72912308,0.00871988323 3.50037579,0.000189562679 C4.27942879,0.00871988323 4.92880213,0.194491309 5.44849581,0.553712585 C5.96428934,0.909142608 6.33675273,1.31385893 6.56491093,1.76786154 C6.73066688,2.00671052 6.84474598,2.31948894 6.90714823,2.7061968 C6.96565033,3.09290467 6.99392634,3.85779008 6.99392634,4.99990522 C6.99392634,6.12495972 6.96565033,6.88415825 6.90714823,7.28034425 C6.84474598,7.67653024 6.73066688,7.99309992 6.56491093,8.23194889 C6.33675273,8.68784714 5.96428934,9.08687658 5.44849581,9.43377628 C4.92880213,9.79299755 4.27942879,9.98161242 3.49940076,9.99962087 C2.72912308,9.98161242 2.08657499,9.79299755 1.57175648,9.43377628 C1.04816267,9.08687658 0.666923968,8.68784714 0.429015418,8.23194889 C0.35783786,8.08409 0.292510512,7.941918 0.234983445,7.80638068 C0.180381482,7.66705211 0.135529871,7.49170663 0.0994535741,7.28034425 C0.0331511914,6.88415825 -6.49503811e-16,6.12495972 -6.49503811e-16,4.99990522" id="Fill-1" fill="#FFFFFF"></path>
            <path d="M10.4859168,5.55342824 L10.4859168,8.5153451 L12.7772492,8.5153451 C13.329119,8.50776259 13.7337586,8.35611245 13.9901928,8.06323811 C14.245652,7.77510284 14.3733815,7.43199439 14.3733815,7.03391276 C14.3733815,6.62919644 14.245652,6.28134893 13.9901928,5.99226584 C13.7337586,5.70886964 13.329119,5.56290637 12.7772492,5.55342824 L10.4859168,5.55342824 Z M10.4859168,1.40295339 L10.4859168,4.23122856 L12.631969,4.23122856 C13.1750635,4.23122856 13.5738528,4.08905655 13.830287,3.80376471 C14.0896463,3.54311603 14.219326,3.21138134 14.219326,2.81329972 C14.219326,2.41521809 14.0896463,2.07874434 13.830287,1.80293064 C13.5738528,1.5451254 13.1750635,1.41243152 12.631969,1.40295339 L10.4859168,1.40295339 Z M9.00191351,0.0817015146 L12.80065,0.0817015146 C13.7639846,0.0902318352 14.4874606,0.332872064 14.9730281,0.810570015 C15.4615206,1.29205922 15.7052794,1.92898982 15.7052794,2.71946619 C15.7140547,3.12418251 15.6185013,3.51183819 15.416669,3.87958979 C15.3133153,4.05588308 15.16511,4.22269824 14.9730281,4.38003526 C14.7799712,4.54685042 14.5420626,4.69660493 14.2602775,4.83119443 L14.2602775,4.85962884 C14.7945967,4.99800959 15.1992362,5.27951017 15.4732211,5.70128713 C15.7296553,6.13822911 15.8583599,6.6121358 15.8583599,7.12490285 C15.8486096,7.97698709 15.5843751,8.64898679 15.0637064,9.14279757 C14.5479128,9.66125149 13.9043897,9.91810892 13.133137,9.91810892 L9.00191351,9.91810892 L9.00191351,0.0817015146 Z" id="Fill-3" fill="#FFFFFF"></path>
            <g id="Group-7" transform="translate(16.818867, 0.000000)">
                <mask id="mask-2" fill="white">
                    <use xlink:href="#path-1"></use>
                </mask>
                <g id="Clip-6"></g>
                <path d="M0.974060005,7.5360643 C1.75408804,8.18057741 2.6823214,8.50757303 3.75876008,8.51515554 C5.03313088,8.49904271 5.67860407,8.04124884 5.69712974,7.14556518 C5.70688009,6.41195761 5.28078978,5.97027657 4.4188588,5.82146987 C4.02494465,5.76839232 3.59300412,5.70678445 3.12108716,5.63854188 C2.27865689,5.50016113 1.63805887,5.18643489 1.19831806,4.70020662 C0.745901806,4.19976115 0.518718641,3.59316058 0.518718641,2.87661365 C0.518718641,2.01789472 0.803428873,1.3231475 1.3718743,0.798058878 C1.9227691,0.275813698 2.70377217,0.00947813394 3.71683357,0 C4.93465234,0.0274865884 5.99256536,0.366803784 6.89349774,1.01605596 L6.06666802,2.24157868 C5.33051657,1.75440259 4.52123748,1.50323204 3.6368807,1.48427578 C3.1805643,1.48427578 2.7993256,1.5989612 2.49511467,1.82927985 C2.17530317,2.06718101 2.01149729,2.42261104 2.00369701,2.89556992 C2.00369701,3.17991394 2.11290093,3.43582356 2.33325885,3.6651944 C2.55264174,3.90025212 2.90365435,4.0613804 3.3892218,4.15237048 C3.65735644,4.19691771 4.02494465,4.24809963 4.4910114,4.30781188 C5.41046944,4.43387106 6.08909383,4.76465793 6.52883463,5.3001725 C6.96370026,5.82715675 7.18113307,6.43849639 7.18113307,7.13608705 C7.13140628,9.01844445 5.98574011,9.97194472 3.74120945,10.0003791 C2.29133234,10.0003791 1.04328749,9.55206339 0,8.65827536 L0.974060005,7.5360643 Z" id="Fill-5" fill="#FFFFFF" mask="url(#mask-2)"></path>
            </g>
        </g>
    </g>
</svg>