<?xml version="1.0" encoding="UTF-8"?>
<svg width="60px" height="60px" viewBox="0 0 60 60" version="1.1" xmlns="http://www.w3.org/2000/svg" xmlns:xlink="http://www.w3.org/1999/xlink">
    <title>icon/60x60/edit</title>
    <g id="icon/60x60/edit" stroke="none" stroke-width="1" fill="none" fill-rule="evenodd">
        <path d="M20,51 L4,51 C2.896,51 2,50.104 2,49 L2,47 C2,45.896 2.896,45 4,45 L20,45 C21.104,45 22,44.104 22,43 L22,35 C22,33.896 21.104,33 20,33 L4,33 C2.896,33 2,33.896 2,35 L2,37 C2,38.104 2.896,39 4,39 L16.5,39 C17.604,39 18.5,38.104 18.5,37 L18.5,29 C18.5,27.896 19.396,27 20.5,27 L35,27 C36.104,27 37,26.104 37,25 L37,10.937 C37,9.867 36.132,9 35.063,9 L3.938,9 C2.868,9 2,9.867 2,10.937 L2,25.063 C2,26.133 2.868,27 3.938,27 L11.5,27" id="Stroke-1" stroke="#00153B" stroke-width="2" stroke-linecap="round"></path>
        <path d="M46.5884777,44.5869199 C46.5814777,41.2799199 46.5524777,37.9739199 46.4314777,34.6669199 C46.3824777,33.0129199 46.3374777,31.3589199 46.2404777,29.7059199 C46.1564777,28.0529199 46.0824777,26.3999199 45.9534777,24.7459199 C45.7384777,21.4389199 45.4364777,18.1319199 44.9894777,14.8249199 C44.9644777,14.6419199 44.8144777,14.4899199 44.6144777,14.4649199 C44.3764777,14.4359199 44.1584777,14.5969199 44.1284777,14.8249199 C43.6814777,18.1319199 43.3794777,21.4389199 43.1644777,24.7459199 C43.0344777,26.3999199 42.9604777,28.0529199 42.8774777,29.7059199 C42.7804777,31.3589199 42.7344777,33.0129199 42.6864777,34.6669199 C42.5644777,37.9739199 42.5354777,41.2799199 42.5284777,44.5869199 C42.5464777,45.8459199 42.6014777,47.1039199 42.7314777,48.3619199 L46.3854777,48.3619199 C46.5154777,47.1039199 46.5704777,45.8459199 46.5884777,44.5869199 Z" id="Stroke-1" stroke="#A6AEBB" stroke-width="2" transform="translate(44.558478, 31.411732) rotate(-315.000000) translate(-44.558478, -31.411732) "></path>
        <path d="M27.152489,51.0087493 C27.197489,51.1317493 27.294489,51.2357493 27.426489,51.2827493 C27.664489,51.3697493 27.927489,51.2467493 28.014489,51.0087493 C28.685489,49.1597493 29.077489,47.3117493 29.309489,45.4627493 L25.857489,45.4627493 C26.088489,47.3117493 26.481489,49.1597493 27.152489,51.0087493 Z" id="Stroke-3" stroke="#2EB598" stroke-width="2" transform="translate(27.583489, 48.386720) rotate(-315.000000) translate(-27.583489, -48.386720) "></path>
    </g>
</svg>