<?xml version="1.0" encoding="UTF-8"?>
<svg width="60px" height="60px" viewBox="0 0 60 60" version="1.1" xmlns="http://www.w3.org/2000/svg" xmlns:xlink="http://www.w3.org/1999/xlink">
    <title>icon/60x60/edit-locked</title>
    <g id="icon/60x60/edit-locked" stroke="none" stroke-width="1" fill="none" fill-rule="evenodd">
        <rect id="Rectangle" fill="#B9B9B9" x="0" y="0" width="60" height="60" rx="15"></rect>
        <g id="Group-2" transform="translate(20.000000, 15.000000)" stroke="#00153B" stroke-linecap="round" stroke-linejoin="round" stroke-width="2">
            <path d="M17.884073,31 L2.9419875,31 C1.31695163,31 -2.62900812e-13,29.6830484 -2.62900812e-13,28.0558429 L-2.62900812e-13,13.712569 C-2.62900812e-13,12.0875332 1.31695163,10.7705815 2.9419875,10.7705815 L17.884073,10.7705815 C19.5091089,10.7705815 20.8260605,12.0875332 20.8260605,13.712569 L20.8260605,28.0558429 C20.8260605,29.6830484 19.5091089,31 17.884073,31 Z" id="Stroke-16"></path>
            <path d="M5.20640664,10.414115 L5.20640664,4.18517248 C5.20640664,1.8723711 7.21112379,1.0658141e-14 9.68447611,1.0658141e-14 L11.1402826,1.0658141e-14 C13.6136349,1.0658141e-14 15.6205217,1.8723711 15.6205217,4.18517248 L15.6205217,10.414115" id="Stroke-18"></path>
        </g>
    </g>
</svg>