<?xml version="1.0" encoding="UTF-8"?>
<svg width="60px" height="60px" viewBox="0 0 60 60" version="1.1" xmlns="http://www.w3.org/2000/svg" xmlns:xlink="http://www.w3.org/1999/xlink">
    <title>icon/60x60/edit-all-good</title>
    <g id="icon/60x60/edit-all-good" stroke="none" stroke-width="1" fill="none" fill-rule="evenodd">
        <rect id="Rectangle" fill="#2EB598" x="42" y="43" width="16" height="12" rx="2"></rect>
        <path d="M43,19.6055074 C43.615,19.6055074 38.897,18.9855074 34.593,18.4355074 C32.402,18.1565074 31.783,15.2775074 33.664,14.1205074 C35.696,12.8695074 38.078,15.1055074 36.958,17.2125074 L24.07,41.4665074 C23.308,42.9005074 21.217,42.7845074 20.619,41.2745074 L6.727,6.20250742 C6.185,4.83350742 4.359,4.57250742 3.455,5.73550742 L2,7.60550742" id="Stroke-1" stroke="#2EB598" stroke-width="2" stroke-linecap="round"></path>
        <path d="M52.06,36.1253765 C52.053,32.8183765 52.024,29.5123765 51.903,26.2053765 C51.854,24.5513765 51.809,22.8973765 51.712,21.2443765 C51.628,19.5913765 51.554,17.9383765 51.425,16.2843765 C51.21,12.9773765 50.908,9.67037654 50.461,6.36337654 C50.436,6.18037654 50.286,6.02837654 50.086,6.00337654 C49.848,5.97437654 49.63,6.13537654 49.6,6.36337654 C49.153,9.67037654 48.851,12.9773765 48.636,16.2843765 C48.506,17.9383765 48.432,19.5913765 48.349,21.2443765 C48.252,22.8973765 48.206,24.5513765 48.158,26.2053765 C48.036,29.5123765 48.007,32.8183765 48,36.1253765 C48.018,37.3843765 48.073,38.6423765 48.203,39.9003765 L51.857,39.9003765 C51.987,38.6423765 52.042,37.3843765 52.06,36.1253765 Z" id="Stroke-1" stroke="#A6AEBB" stroke-width="2"></path>
    </g>
</svg>