<?xml version="1.0" encoding="UTF-8"?>
<svg width="60px" height="60px" viewBox="0 0 60 60" version="1.1" xmlns="http://www.w3.org/2000/svg" xmlns:xlink="http://www.w3.org/1999/xlink">
    <title>icon/60x60/edit-warrning copy</title>
    <g id="icon/60x60/edit-warrning-copy" stroke="none" stroke-width="1" fill="none" fill-rule="evenodd">
        <rect id="Rectangle" fill="#DC0606" x="0" y="0" width="60" height="60" rx="2"></rect>
        <line x1="42.627907" y1="28.3255814" x2="30.5348837" y2="14.372093" id="Stroke-1" stroke="#FFFFFF" stroke-width="2" stroke-linecap="round"></line>
        <line x1="40.7674419" y1="13.4418605" x2="29.6046512" y2="28.3255814" id="Stroke-2" stroke="#FFFFFF" stroke-width="2" stroke-linecap="round"></line>
        <path d="M9.6538165,35.9030402 C11.1882976,37.4316216 12.7332574,38.9497242 14.320787,40.4246021 C15.1093125,41.1679354 15.8965282,41.9125785 16.706666,42.6329896 C17.5109096,43.3606048 18.3112237,44.0921495 19.1364248,44.7974974 C20.7678342,46.2298056 22.4391939,47.6208539 24.1773555,48.9457554 C24.273629,49.0191064 24.4137822,49.0197613 24.5172598,48.9385513 C24.6416948,48.8422782 24.6678917,48.6661049 24.5762027,48.5469096 C23.2512965,46.8080993 21.8602433,45.1374005 20.4285849,43.5053419 C19.7225795,42.6807987 18.9910322,41.8804874 18.2640693,41.0755918 C17.5430008,40.2654568 16.79901,39.4782439 16.0550192,38.6903762 C14.580136,37.1021972 13.0626829,35.5578978 11.5340961,34.0234222 C10.9433569,33.4484032 10.3349348,32.891067 9.69245687,32.3690964 L8.00013973,34.0607526 C8.52211216,34.7038832 9.07945035,35.3123031 9.6538165,35.9030402 Z" id="Stroke-3" stroke="#FFFFFF" stroke-width="2" stroke-linejoin="round" transform="translate(16.315522, 40.684618) rotate(-270.000000) translate(-16.315522, -40.684618) "></path>
        <path d="M49.0000465,21.0984298 C49.0000465,28.3326669 43.1358795,34.1968132 35.9016167,34.1968132 C28.6680088,34.1968132 22.8031868,28.3326669 22.8031868,21.0984298 C22.8031868,13.8641927 28.6680088,8.00004651 35.9016167,8.00004651 C43.1358795,8.00004651 49.0000465,13.8641927 49.0000465,21.0984298 Z" id="Stroke-5" stroke="#FFFFFF" stroke-width="2" stroke-linejoin="round" transform="translate(35.901617, 21.098430) rotate(-270.000000) translate(-35.901617, -21.098430) "></path>
    </g>
</svg>