<?xml version="1.0" encoding="UTF-8"?>
<svg width="60px" height="60px" viewBox="0 0 60 60" version="1.1" xmlns="http://www.w3.org/2000/svg" xmlns:xlink="http://www.w3.org/1999/xlink">
    <title>icon/60x60/edit-simple</title>
    <g id="icon/60x60/edit-simple" stroke="none" stroke-width="1" fill="none" fill-rule="evenodd">
        <rect id="Rectangle" fill="#00153B" x="0" y="0" width="60" height="60" rx="15"></rect>
        <g id="Group" transform="translate(13.000000, 13.000000)" stroke-width="2">
            <path d="M22.2930148,26.5962081 C22.2860148,23.2892081 22.2570148,19.9832081 22.1360148,16.6762081 C22.0870148,15.0222081 22.0420148,13.3682081 21.9450148,11.7152081 C21.8610148,10.0622081 21.7870148,8.4092081 21.6580148,6.7552081 C21.4430148,3.4482081 21.1410148,0.141208103 20.6940148,-3.1657919 C20.6690148,-3.3487919 20.5190148,-3.5007919 20.3190148,-3.5257919 C20.0810148,-3.5547919 19.8630148,-3.3937919 19.8330148,-3.1657919 C19.3860148,0.141208103 19.0840148,3.4482081 18.8690148,6.7552081 C18.7390148,8.4092081 18.6650148,10.0622081 18.5820148,11.7152081 C18.4850148,13.3682081 18.4390148,15.0222081 18.3910148,16.6762081 C18.2690148,19.9832081 18.2400148,23.2892081 18.2330148,26.5962081 C18.2510148,27.8552081 18.3060148,29.1132081 18.4360148,30.3712081 L22.0900148,30.3712081 C22.2200148,29.1132081 22.2750148,27.8552081 22.2930148,26.5962081 Z" id="Stroke-1" stroke="#FAFAFA" transform="translate(20.263015, 13.421020) rotate(-315.000000) translate(-20.263015, -13.421020) "></path>
            <path d="M2.85702607,33.0180375 C2.90202607,33.1410375 2.99902607,33.2450375 3.13102607,33.2920375 C3.36902607,33.3790375 3.63202607,33.2560375 3.71902607,33.0180375 C4.39002607,31.1690375 4.78202607,29.3210375 5.01402607,27.4720375 L1.56202607,27.4720375 C1.79302607,29.3210375 2.18602607,31.1690375 2.85702607,33.0180375 Z" id="Stroke-3" stroke="#2EB598" transform="translate(3.288026, 30.396009) rotate(-315.000000) translate(-3.288026, -30.396009) "></path>
        </g>
    </g>
</svg>