<?xml version="1.0" encoding="UTF-8"?>
<svg width="60px" height="60px" viewBox="0 0 60 60" version="1.1" xmlns="http://www.w3.org/2000/svg" xmlns:xlink="http://www.w3.org/1999/xlink">
    <title>icon/60x60/email</title>
    <g id="icon/60x60/email" stroke="none" stroke-width="1" fill="none" fill-rule="evenodd">
        <g id="Group-5" transform="translate(12.000000, 12.000000)">
            <path d="M36,17.662 C36,7.963 28.452,0 18,0 C7.645,0 0,7.769 0,18.049 C0,28.182 7.597,36 18.048,36 C22.403,36 26.468,34.648 29.564,32.14 L28.016,29.774 C25.5,31.898 22.064,33.298 17.951,33.298 C8.758,33.298 2.903,26.204 2.903,18.001 C2.903,9.797 8.854,2.702 18.048,2.702 C27.29,2.702 33.097,9.845 33.097,17.903 C33.097,22.307 31.317,24.294 29,24.407 L29,27.234 C33.48,26.912 36,23.237 36,17.662" id="Fill-1" fill="#00153B"></path>
            <path d="M21.5801,18.6757 C21.4841,19.7857 21.4351,20.7027 21.5321,21.5717 C20.3711,23.1627 18.6291,23.8877 17.0321,23.8877 C14.2741,23.8877 12.7261,21.8127 12.7261,18.9167 C12.7261,15.6357 14.7101,12.0647 18.1451,12.0647 C19.6931,12.0647 21.1451,12.8367 22.0161,13.6567 L21.5801,18.6757 Z M28.7901,24.4177 C26.5641,24.4177 25.4511,22.6817 25.4511,20.1717 C25.4511,20.0277 25.4511,19.6887 25.5001,19.1577 L26.3221,9.6517 L22.9831,10.2307 C21.5321,9.2177 20.0321,8.6867 18.1451,8.6867 C12.2901,8.6867 8.7101,13.7537 8.7101,18.9647 C8.7101,23.8877 11.9031,27.3137 16.3541,27.3137 C18.7261,27.3137 20.9511,26.3487 22.5481,24.5147 L22.6451,24.5147 C23.8071,26.2037 25.6931,27.2657 28.3541,27.2657 C28.5761,27.2657 28.7881,27.2487 29.0001,27.2347 L29.0001,24.4067 C28.9301,24.4107 28.8611,24.4177 28.7901,24.4177 L28.7901,24.4177 Z" id="Fill-3" fill="#2EB598"></path>
        </g>
    </g>
</svg>