<?xml version="1.0" encoding="UTF-8"?>
<svg width="60px" height="60px" viewBox="0 0 60 60" version="1.1" xmlns="http://www.w3.org/2000/svg" xmlns:xlink="http://www.w3.org/1999/xlink">
    <title>icon/60x60/email copy</title>
    <g id="icon/60x60/email-copy" stroke="none" stroke-width="1" fill="none" fill-rule="evenodd">
        <path d="M29.587961,53.9965343 C16.0180722,53.7681035 5.19066,42.27752 6.048,28.469 C6.79,16.517 16.517,6.789 28.469,6.048 C42.417,5.182 54,16.238 54,30 L54,30 L53.9967847,30.3968888 C53.784849,43.4688255 43.12245,54 30,54 L30,54 Z" id="Combined-Shape" fill="#00153B"></path>
        <path d="M30.16,45.08 C33.76,45.08 37.12,43.92 39.68,41.8 L38.6,40.16 C36.44,42 33.52,43.16 30.12,43.16 C22.48,43.16 17.36,37.24 17.36,30.16 C17.36,23.12 22.48,17.16 30.2,17.16 C37.88,17.16 42.92,23.12 42.92,30.12 C42.92,34.08 41.32,35.84 39.12,35.84 C37.24,35.84 36.12,34.52 36.12,31.96 L36.120625,31.87 C36.1225,31.75 36.13,31.54 36.16,31.24 L36.84,23.44 L34.6,23.84 C33.4,22.96 32.16,22.44 30.48,22.44 C25.64,22.44 22.6,26.64 22.6,31.04 C22.6,35.08 25.2,37.88 28.88,37.88 C30.88,37.88 32.8,37.04 34.2,35.4 L34.28,35.4 C35,36.72 36.48,37.84 38.84,37.84 C42.88,37.84 44.92,34.52 44.92,29.92 C44.92,21.88 38.72,15.24 30.16,15.24 C21.64,15.24 15.36,21.76 15.36,30.16 C15.36,38.56 21.6,45.08 30.16,45.08 Z M29.28,35.56 C26.72,35.56 25.24,33.64 25.24,30.96 C25.24,27.88 27.2,24.76 30.32,24.76 C31.8,24.76 33.16,25.48 34,26.32 L33.6,31.08 C33.52,32 33.48,32.6 33.56,33.32 C32.44,34.84 30.8,35.56 29.28,35.56 Z" id="@" fill="#2EB598" fill-rule="nonzero"></path>
    </g>
</svg>