<?xml version="1.0" encoding="UTF-8"?>
<svg width="72px" height="72px" viewBox="0 0 72 72" version="1.1" xmlns="http://www.w3.org/2000/svg" xmlns:xlink="http://www.w3.org/1999/xlink">
    <title>EB22FB61-0107-4CD5-81A3-2EC7E3F49F5E</title>
    <g id="styles" stroke="none" stroke-width="1" fill="none" fill-rule="evenodd" stroke-linejoin="round">
        <g id="icon-sheet" transform="translate(-1047.000000, -827.000000)" stroke="#FFFFFF" stroke-width="2">
            <g id="icon/144/family" transform="translate(1047.000000, 827.000000)">
                <g id="Group" transform="translate(14.000000, 10.000000)">
                    <path d="M15.5155278,34 C19.9647778,34 19.1631111,30.4303848 19.1631111,18.5523535 C19.1631111,13.0174286 13.3048056,13.2755927 10.9084722,10.9223276 C9.72944444,9.76448992 9,8.16479448 9,6.39807253 C9,4.63170521 9.72944444,3.03200976 10.9084722,1.8738175 C12.0875,0.71633447 13.7164722,0 15.5155278,0 L15.4848333,0 C17.2838889,0 18.9128611,0.71633447 20.0918889,1.8738175 C21.2709167,3.03200976 22,4.63170521 22,6.39807253 C22,8.16479448 21.2709167,9.76448992 20.0918889,10.9223276 C17.6955556,13.2755927 11.83725,13.0174286 11.83725,18.5523535 C11.83725,30.4303848 11.0355833,34 15.4848333,34 L15.5155278,34 Z" id="Stroke-1"></path>
                    <path d="M37.5155278,44 C41.9647778,44 41.1631111,40.4303848 41.1631111,28.5523535 C41.1631111,23.0174286 35.3048056,23.2755927 32.9084722,20.9226822 C31.7294444,19.7644899 31,18.1647945 31,16.3984272 C31,14.6317052 31.7294444,13.0320098 32.9084722,11.8741721 C34.0875,10.7163345 35.7164722,10 37.5155278,10 L37.4848333,10 C39.2838889,10 40.9128611,10.7163345 42.0918889,11.8741721 C43.2709167,13.0320098 44,14.6317052 44,16.3984272 C44,18.1647945 43.2709167,19.7644899 42.0918889,20.9226822 C39.6955556,23.2755927 33.83725,23.0174286 33.83725,28.5523535 C33.83725,40.4303848 33.0355833,44 37.4848333,44 L37.5155278,44 Z" id="Stroke-3"></path>
                    <path d="M4.009,42 C6.74733333,42 6.25366667,39.5851403 6.25366667,31.5503614 C6.25366667,27.8059076 2.64866667,27.980428 1.174,26.3885134 C0.448333333,25.6051503 0,24.5234832 0,23.3281079 C0,22.1330924 0.448333333,21.0507056 1.174,20.2673425 C1.89966667,19.4846991 2.902,19 4.009,19 L3.99033333,19 C5.09766667,19 6.09966667,19.4846991 6.82533333,20.2673425 C7.551,21.0507056 8,22.1330924 8,23.3281079 C8,24.5234832 7.551,25.6051503 6.82533333,26.3885134 C5.35066667,27.980428 1.74566667,27.8059076 1.74566667,31.5503614 C1.74566667,39.5851403 1.252,42 3.99033333,42 L4.009,42 Z" id="Stroke-5"></path>
                    <path d="M26.0091663,52 C28.7473855,52 28.2537394,49.5851403 28.2537394,41.5503614 C28.2537394,37.8059076 24.6488896,37.980428 23.1742844,36.3885134 C22.448648,35.6051503 22,34.5234832 22,33.3281079 C22,32.1330924 22.448648,31.0507056 23.1742844,30.2677024 C23.8999208,29.4846991 24.9022124,29 26.0091663,29 L25.9905004,29 C27.0977876,29 28.0997458,29.4846991 28.8253823,30.2677024 C29.5510187,31.0507056 30,32.1330924 30,33.3281079 C30,34.5234832 29.5510187,35.6051503 28.8253823,36.3885134 C27.3507771,37.980428 23.7459273,37.8059076 23.7459273,41.5503614 C23.7459273,49.5851403 23.2522812,52 25.9905004,52 L26.0091663,52 Z" id="Stroke-7"></path>
                </g>
            </g>
        </g>
    </g>
</svg>