<?xml version="1.0" encoding="UTF-8"?>
<svg width="60px" height="60px" viewBox="0 0 60 60" version="1.1" xmlns="http://www.w3.org/2000/svg" xmlns:xlink="http://www.w3.org/1999/xlink">
    <title>icon/60x60/human</title>
    <g id="icon/60x60/human" stroke="none" stroke-width="1" fill="none" fill-rule="evenodd">
        <path d="M30.0130062,44 C33.7397284,44 33.0682469,41.0603169 33.0682469,31.2784088 C33.0682469,26.7202353 28.1612901,26.932841 26.1541049,24.99515 C25.1665432,24.0413446 24.5555556,22.7239484 24.5555556,21.2692929 C24.5555556,19.8143455 25.1665432,18.4969492 26.1541049,17.5434359 C27.1416667,16.5899225 28.5061049,16 30.0130062,16 L29.9872963,16 C31.4941975,16 32.8586358,16.5899225 33.8461975,17.5434359 C34.8337593,18.4969492 35.4444444,19.8143455 35.4444444,21.2692929 C35.4444444,22.7239484 34.8337593,24.0413446 33.8461975,24.99515 C31.8390123,26.932841 26.9320556,26.7202353 26.9320556,31.2784088 C26.9320556,41.0603169 26.2605741,44 29.9872963,44 L30.0130062,44 Z" id="Stroke-3" stroke="#2EB598" stroke-width="2" stroke-linejoin="round"></path>
        <circle id="Oval" stroke="#00153B" stroke-width="2" cx="30" cy="30" r="21"></circle>
    </g>
</svg>