<?xml version="1.0" encoding="UTF-8"?>
<svg width="72px" height="72px" viewBox="0 0 72 72" version="1.1" xmlns="http://www.w3.org/2000/svg" xmlns:xlink="http://www.w3.org/1999/xlink">
    <title>5BF4365D-A25E-47F9-8040-C0EF7ECE0DE9</title>
    <g id="styles" stroke="none" stroke-width="1" fill="none" fill-rule="evenodd" stroke-linejoin="round">
        <g id="icon-sheet" transform="translate(-657.000000, -980.000000)" stroke="#FFFFFF" stroke-width="2">
            <g id="icon/72/meetin-type-videomeeting" transform="translate(657.000000, 980.000000)">
                <path d="M54.7286,54 L17.2716,54 C14.3606,54 11.9996,51.64 11.9996,48.729 L11.9996,23.271 C11.9996,20.36 14.3606,18 17.2716,18 L54.7286,18 C57.6396,18 59.9996,20.36 59.9996,23.271 L59.9996,48.729 C59.9996,51.64 57.6396,54 54.7286,54 Z" id="Stroke-1"></path>
                <g id="Group" transform="translate(22.000000, 30.000000)">
                    <path d="M26.2602,12 L10.2602,12 C9.7072,12 9.2602,11.553 9.2602,11 L9.2602,1 C9.2602,0.447 9.7072,0 10.2602,0 L26.2602,0 C26.8122,0 27.2602,0.447 27.2602,1 L27.2602,11 C27.2602,11.553 26.8122,12 26.2602,12 Z" id="Stroke-3"></path>
                    <polygon id="Stroke-5" points="8.52 6 -6.91002811e-13 0 -6.91002811e-13 12"></polygon>
                </g>
            </g>
        </g>
    </g>
</svg>