<?xml version="1.0" encoding="UTF-8"?>
<svg width="72px" height="72px" viewBox="0 0 72 72" version="1.1" xmlns="http://www.w3.org/2000/svg" xmlns:xlink="http://www.w3.org/1999/xlink">
    <title>A5DE9D06-F2C8-4BB7-94EB-BDDC6A2353BB</title>
    <g id="styles" stroke="none" stroke-width="1" fill="none" fill-rule="evenodd" stroke-linejoin="round">
        <g id="icon-sheet" transform="translate(-445.000000, -496.000000)" stroke-width="2">
            <g id="icon/72/meetin-type-home" transform="translate(445.000000, 496.000000)">
                <polyline id="Stroke-1" stroke="#FFFFFF" stroke-linecap="round" transform="translate(51.572600, 36.500400) scale(-1, 1) translate(-51.572600, -36.500400) " points="50.7046 61.0004 41.0726 61.0004 41.0726 46.7404 41.0726 28.1044 48.1516 20.0524 55.2316 12.0004 62.0726 20.0524"></polyline>
                <path d="M15.381,47.439 C15.381,42.236 9.974,42.478 7.762,40.266 C6.673,39.178 6,37.674 6,36.014 C6,34.353 6.673,32.849 7.762,31.761 C8.85,30.673 10.354,30 12.014,30 L11.986,30 C13.647,30 15.151,30.673 16.238,31.761 C17.327,32.849 18,34.353 18,36.014 C18,37.674 17.327,39.178 16.238,40.266 C14.027,42.478 8.619,42.236 8.619,47.439 C8.619,58.603 9.059,61.959 11.986,61.959 C14.913,61.959 15.381,58.603 15.381,47.439 Z" id="Stroke-1" stroke="#D6E7E5"></path>
                <path d="M37.381,47.439 C37.381,42.236 31.974,42.478 29.762,40.266 C28.673,39.178 28,37.674 28,36.014 C28,34.353 28.673,32.849 29.762,31.761 C30.85,30.673 32.354,30 34.014,30 L33.986,30 C35.647,30 37.151,30.673 38.238,31.761 C39.327,32.849 40,34.353 40,36.014 C40,37.674 39.327,39.178 38.238,40.266 C36.027,42.478 30.619,42.236 30.619,47.439 C30.619,58.603 31.059,61.959 33.986,61.959 C36.913,61.959 37.381,58.603 37.381,47.439 Z" id="Stroke-1-Copy" stroke="#FFFFFF"></path>
            </g>
        </g>
    </g>
</svg>