<?xml version="1.0" encoding="UTF-8"?>
<svg width="60px" height="60px" viewBox="0 0 60 60" version="1.1" xmlns="http://www.w3.org/2000/svg" xmlns:xlink="http://www.w3.org/1999/xlink">
    <title>icon/60x60/passord</title>
    <g id="icon/60x60/passord" stroke="none" stroke-width="1" fill="none" fill-rule="evenodd">
        <path d="M29.587961,53.9965343 C16.0180722,53.7681035 5.19066,42.27752 6.048,28.469 C6.79,16.517 16.517,6.789 28.469,6.048 C42.417,5.182 54,16.238 54,30 L54,30 L53.9967847,30.3968888 C53.784849,43.4688255 43.12245,54 30,54 L30,54 Z" id="Combined-Shape" fill="#00153B"></path>
        <g id="Group" transform="translate(22.000000, 18.000000)" stroke="#2EB598" stroke-linecap="round" stroke-linejoin="round" stroke-width="1.6">
            <path d="M13.7397646,24 L2.26023544,24 C1.01177206,24 0,23.005733 0,21.7772318 L0,10.9484029 C0,9.72153972 1.01177206,8.72727273 2.26023544,8.72727273 L13.7397646,8.72727273 C14.9882279,8.72727273 16,9.72153972 16,10.9484029 L16,21.7772318 C16,23.005733 14.9882279,24 13.7397646,24 Z" id="Stroke-16"></path>
            <path d="M4.26666667,7.63636364 L4.26666667,3.06886364 C4.26666667,1.37295455 5.704,0 7.47733333,0 L8.52111111,0 C10.2944444,0 11.7333333,1.37295455 11.7333333,3.06886364 L11.7333333,7.63636364" id="Stroke-18"></path>
        </g>
    </g>
</svg>