<?xml version="1.0" encoding="UTF-8"?>
<svg width="60px" height="60px" viewBox="0 0 60 60" version="1.1" xmlns="http://www.w3.org/2000/svg" xmlns:xlink="http://www.w3.org/1999/xlink">
    <title>icon/60x60/passord copy</title>
    <g id="icon/60x60/passord-copy" stroke="none" stroke-width="1" fill="none" fill-rule="evenodd">
        <path d="M29.587961,53.9965343 C16.0180722,53.7681035 5.19066,42.27752 6.048,28.469 C6.79,16.517 16.517,6.789 28.469,6.048 C42.417,5.182 54,16.238 54,30 L54,30 L53.9967847,30.3968888 C53.784849,43.4688255 43.12245,54 30,54 L30,54 Z" id="Combined-Shape" fill="#00153B"></path>
        <g id="Group" transform="translate(9.000000, 27.000000)" fill="#2EB598">
            <path d="M2.99997688,3.44985534 L2.99997688,6 C1.27971362,6 -0.102297037,4.55211384 0.00595379697,2.8086004 C0.0987045119,1.31458888 1.31458888,0.0985795109 2.8086004,0.00595379697 C4.55211384,-0.102297037 6,1.27971362 6,2.99997688 L6,2.99997688 L3.44985534,2.99997688 C3.42224402,2.99997688 3.39521449,3.00246301 3.36897835,3.00722367 L3.449875,3 L6,3 C6,4.656875 4.656875,6 3,6 L3,6 L3,3.449875 C3,3.42226389 3.00248611,3.39523457 3.00724674,3.36899863 L2.99997688,3.44985534 Z" id="Combined-Shape"></path>
            <path d="M11.9999769,3.44985534 L11.9999769,6 C10.2797136,6 8.89770296,4.55211384 9.0059538,2.8086004 C9.09870451,1.31458888 10.3145889,0.0985795109 11.8086004,0.00595379697 C13.5521138,-0.102297037 15,1.27971362 15,2.99997688 L15,2.99997688 L12.4498553,2.99997688 C12.422244,2.99997688 12.3952145,3.00246301 12.3689783,3.00722367 L12.449875,3 L15,3 C15,4.656875 13.656875,6 12,6 L12,6 L12,3.449875 C12,3.42226389 12.0024861,3.39523457 12.0072467,3.36899863 L11.9999769,3.44985534 Z" id="Combined-Shape-Copy"></path>
            <path d="M20.9999769,3.44985534 L20.9999769,6 C19.2797136,6 17.897703,4.55211384 18.0059538,2.8086004 C18.0987045,1.31458888 19.3145889,0.0985795109 20.8086004,0.00595379697 C22.5521138,-0.102297037 24,1.27971362 24,2.99997688 L24,2.99997688 L21.4498553,2.99997688 C21.422244,2.99997688 21.3952145,3.00246301 21.3689783,3.00722367 L21.449875,3 L24,3 C24,4.656875 22.656875,6 21,6 L21,6 L21,3.449875 C21,3.42226389 21.0024861,3.39523457 21.0072467,3.36899863 L20.9999769,3.44985534 Z" id="Combined-Shape-Copy-2"></path>
            <path d="M29.9999769,3.44985534 L29.9999769,6 C28.2797136,6 26.897703,4.55211384 27.0059538,2.8086004 C27.0987045,1.31458888 28.3145889,0.0985795109 29.8086004,0.00595379697 C31.5521138,-0.102297037 33,1.27971362 33,2.99997688 L33,2.99997688 L30.4498553,2.99997688 C30.422244,2.99997688 30.3952145,3.00246301 30.3689783,3.00722367 L30.449875,3 L33,3 C33,4.656875 31.656875,6 30,6 L30,6 L30,3.449875 C30,3.42226389 30.0024861,3.39523457 30.0072467,3.36899863 L29.9999769,3.44985534 Z" id="Combined-Shape-Copy-3"></path>
            <path d="M38.9999769,3.44985534 L38.9999769,6 C37.2797136,6 35.897703,4.55211384 36.0059538,2.8086004 C36.0987045,1.31458888 37.3145889,0.0985795109 38.8086004,0.00595379697 C40.5521138,-0.102297037 42,1.27971362 42,2.99997688 L42,2.99997688 L39.4498553,2.99997688 C39.422244,2.99997688 39.3952145,3.00246301 39.3689783,3.00722367 L39.449875,3 L42,3 C42,4.656875 40.656875,6 39,6 L39,6 L39,3.449875 C39,3.42226389 39.0024861,3.39523457 39.0072467,3.36899863 L38.9999769,3.44985534 Z" id="Combined-Shape-Copy-3"></path>
        </g>
    </g>
</svg>