<?xml version="1.0" encoding="UTF-8"?>
<svg width="60px" height="60px" viewBox="0 0 60 60" version="1.1" xmlns="http://www.w3.org/2000/svg" xmlns:xlink="http://www.w3.org/1999/xlink">
    <title>C1040232-FB7D-4E46-9373-FAF19FD18E09</title>
    <g id="styles" stroke="none" stroke-width="1" fill="none" fill-rule="evenodd" stroke-linejoin="round">
        <g id="icon-sheet" transform="translate(-240.000000, -1171.000000)" stroke-width="2">
            <g id="icon/60x60/phone-2" transform="translate(240.000000, 1171.000000)">
                <path d="M32,42 C32,43.104 31.1046667,44 30,44 C28.8953333,44 28,43.104 28,42 C28,40.8953333 28.8953333,40 30,40 C31.1046667,40 32,40.8953333 32,42 Z" id="Stroke-3" stroke="#2EB598"></path>
                <path d="M37.7788333,48 L22.2217778,48 C20.4428333,48 19,46.584 19,44.8374 L19,15.1626 C19,13.416 20.4428333,12 22.2217778,12 L37.7788333,12 C39.5577778,12 41,13.416 41,15.1626 L41,44.8374 C41,46.584 39.5577778,48 37.7788333,48 Z" id="Stroke-5" stroke="#00153B"></path>
            </g>
        </g>
    </g>
</svg>