<?xml version="1.0" encoding="UTF-8"?>
<svg width="60px" height="60px" viewBox="0 0 60 60" version="1.1" xmlns="http://www.w3.org/2000/svg" xmlns:xlink="http://www.w3.org/1999/xlink">
    <title>C1552554-68A3-4DBC-99F8-3D01C94CCAC9</title>
    <g id="styles" stroke="none" stroke-width="1" fill="none" fill-rule="evenodd">
        <g id="icon-sheet" transform="translate(-510.000000, -1089.000000)">
            <g id="icon/60x60/phone" transform="translate(510.000000, 1089.000000)">
                <path d="M29.587961,53.9965343 C16.0180722,53.7681035 5.19066,42.27752 6.048,28.469 C6.79,16.517 16.517,6.789 28.469,6.048 C42.417,5.182 54,16.238 54,30 L54,30 L53.9967847,30.3968888 C53.784849,43.4688255 43.12245,54 30,54 L30,54 Z" id="Combined-Shape" fill="#00153B"></path>
                <g id="Group" transform="translate(19.000000, 12.000000)" stroke="#2EB598" stroke-linejoin="round" stroke-width="2">
                    <path d="M13,30 C13,31.104 12.1046667,32 11,32 C9.89533333,32 9,31.104 9,30 C9,28.8953333 9.89533333,28 11,28 C12.1046667,28 13,28.8953333 13,30 Z" id="Stroke-3"></path>
                    <path d="M18.7788333,36 L3.22177778,36 C1.44283333,36 0,34.584 0,32.8374 L0,3.1626 C0,1.416 1.44283333,0 3.22177778,0 L18.7788333,0 C20.5577778,0 22,1.416 22,3.1626 L22,32.8374 C22,34.584 20.5577778,36 18.7788333,36 Z" id="Stroke-5"></path>
                </g>
            </g>
        </g>
    </g>
</svg>