<?xml version="1.0" encoding="UTF-8"?>
<svg width="60px" height="60px" viewBox="0 0 60 60" version="1.1" xmlns="http://www.w3.org/2000/svg" xmlns:xlink="http://www.w3.org/1999/xlink">
    <title>icon/60x60/pick-location</title>
    <g id="icon/60x60/pick-location" stroke="none" stroke-width="1" fill="none" fill-rule="evenodd">
        <path d="M30,36 C25.029,36 21,31.971 21,27 C21,22.03 25.029,18 30,18 C34.971,18 39,22.03 39,27 C39,31.971 34.971,36 30,36 Z" id="Fill-1" fill="#2EB598"></path>
        <path d="M48,27 C48,29.485 47.496,31.853 46.586,34.007 C45.675,36.16 44.356,38.1 42.728,39.728 L31.764,50.692 C30.79,51.666 29.21,51.666 28.236,50.692 L17.272,39.728 C15.644,38.1 14.325,36.16 13.414,34.007 C12.504,31.853 12,29.485 12,27 C12,24.515 12.504,22.147 13.414,19.994 C14.325,17.84 15.644,15.901 17.272,14.272 C18.9,12.644 20.84,11.326 22.993,10.415 C25.147,9.504 27.515,9 30,9 C32.485,9 34.853,9.504 37.007,10.415 C39.16,11.326 41.1,12.644 42.728,14.272 C44.356,15.901 45.675,17.84 46.586,19.994 C47.496,22.147 48,24.515 48,27 Z" id="Stroke-3" stroke="#00153B" stroke-width="2"></path>
    </g>
</svg>