<?xml version="1.0" encoding="UTF-8"?>
<svg width="60px" height="60px" viewBox="0 0 60 60" version="1.1" xmlns="http://www.w3.org/2000/svg" xmlns:xlink="http://www.w3.org/1999/xlink">
    <title>40F9E571-126B-4AB1-91AA-24C19A56D680</title>
    <g id="styles" stroke="none" stroke-width="1" fill="none" fill-rule="evenodd">
        <g id="icon-sheet" transform="translate(-240.000000, -1009.000000)">
            <g id="icon/62/previos-history" transform="translate(240.000000, 1009.000000)">
                <g id="Group-5" transform="translate(18.000000, 18.000000)">
                    <path d="M24,11.9999075 C24,5.11885446 18.2084554,-0.40918815 11.2344016,0.0238151879 C5.25835554,0.394318044 0.394818048,5.25835554 0.0238151879,11.2344016 C-0.40918815,18.2084554 5.11885446,24 11.9999075,24 L11.9999075,13.7994214 C11.9999075,12.8054137 12.8054137,11.9999075 13.7994214,11.9999075 L24,11.9999075 Z" id="Fill-1" fill="#B9B9B9"></path>
                    <path d="M24,12 L13.7995,12 C12.8055,12 12,12.8055 12,13.7995 L12,24 C18.6275,24 24,18.6275 24,12" id="Fill-3" fill="#2EB598"></path>
                </g>
                <g id="Group" transform="translate(27.530387, 30.003489) scale(-1, 1) translate(-27.530387, -30.003489) translate(7.000175, 12.000025)" stroke-linejoin="round" stroke-width="2">
                    <polygon id="Stroke-1" stroke="#FFFFFF" points="34.417425 22.4482751 41.060425 13.0162751 27.773425 13.0162751"></polygon>
                    <path d="M32.829525,28.2197751 C31.501525,30.1447751 29.818525,31.7767751 27.893525,33.0417751 C25.970525,34.3077751 23.804525,35.2067751 21.511525,35.6627751 C19.217525,36.1197751 16.797525,36.1337751 14.362525,35.6317751 C11.929525,35.1287751 9.71252501,34.1567751 7.78752501,32.8287751 C5.86252501,31.5017751 4.22952501,29.8187751 2.96452501,27.8947751 C1.69852501,25.9697751 0.800525006,23.8047751 0.344525006,21.5107751 C-0.112474994,19.2177751 -0.127474994,16.7967751 0.375525006,14.3637751 C0.878525006,11.9297751 1.85052501,9.71277506 3.17752501,7.78777506 C4.50552501,5.86377506 6.18752501,4.23077506 8.11252501,2.96477506 C10.036525,1.69877506 12.202525,0.800775058 14.495525,0.343775058 C16.789525,-0.112224942 19.209525,-0.127224942 21.643525,0.374775058 C24.077525,0.877775058 26.294525,1.85077506 28.219525,3.17777506 C30.143525,4.50477506 31.776525,6.18877506 33.042525,8.11277506" id="Stroke-3" stroke="#FAFAFA" stroke-linecap="round"></path>
                </g>
            </g>
        </g>
    </g>
</svg>