<?xml version="1.0" encoding="UTF-8"?>
<svg width="72px" height="72px" viewBox="0 0 72 72" version="1.1" xmlns="http://www.w3.org/2000/svg" xmlns:xlink="http://www.w3.org/1999/xlink">
    <title>5F7BC0D8-4156-465F-B112-A8FBEC86842C</title>
    <g id="styles" stroke="none" stroke-width="1" fill="none" fill-rule="evenodd" stroke-linecap="round">
        <g id="icon-sheet" transform="translate(-948.000000, -997.000000)" stroke="#FFFFFF" stroke-width="2">
            <g id="icon/144/redaing" transform="translate(948.000000, 997.000000)">
                <path d="M30,45 C30,51.6275 24.6275,57 18,57 C11.3725,57 6,51.6275 6,45 C6,38.3725 11.3725,33 18,33 C24.6275,33 30,38.3725 30,45 Z" id="Stroke-1"></path>
                <path d="M66,45 C66,51.6275 60.6275,57 54,57 C47.3725,57 42,51.6275 42,45 C42,38.3725 47.3725,33 54,33 C60.6275,33 66,38.3725 66,45 Z" id="Stroke-3"></path>
                <path d="M23,15.9476276 C21.5361706,15.3376489 19.927029,15 18.2368184,15 C16.5476276,15 14.9379761,15.3376489 13.4736369,15.9476276 C12.0098075,16.5576063 10.6912903,17.4409198 9.58436806,18.5322492 C8.47744586,19.623076 7.58109891,20.9224212 6.96211985,22.3649656 C6.34263092,23.8080125 6,25.3937562 6,27.0588876 L6,36.029695 L6,45" id="Stroke-5"></path>
                <path d="M49,15.9476276 C50.4638294,15.3376489 52.072971,15 53.7631816,15 C55.4523724,15 57.0620239,15.3376489 58.5263631,15.9476276 C59.9901925,16.5576063 61.3087097,17.4409198 62.4156319,18.5322492 C63.5225541,19.623076 64.4189011,20.9224212 65.0378802,22.3649656 C65.6573691,23.8080125 66,25.3937562 66,27.0588876 L66,36.029695 L66,45" id="Stroke-7"></path>
                <path d="M27,38 C29.1757756,35.5285247 32.1809905,34 35.5002504,34 C38.8195103,34 41.8247253,35.5285247 44,38" id="Stroke-9"></path>
            </g>
        </g>
    </g>
</svg>