<?xml version="1.0" encoding="UTF-8"?>
<svg width="72px" height="72px" viewBox="0 0 72 72" version="1.1" xmlns="http://www.w3.org/2000/svg" xmlns:xlink="http://www.w3.org/1999/xlink">
    <title>E955F3CA-7E6F-4938-B084-65C25B2551FF</title>
    <g id="styles" stroke="none" stroke-width="1" fill="none" fill-rule="evenodd" stroke-linecap="round" stroke-linejoin="round">
        <g id="icon-sheet" transform="translate(-492.000000, -721.000000)" stroke="#FFFFFF" stroke-width="2">
            <g id="icon/144/travel" transform="translate(492.000000, 721.000000)">
                <path d="M60.2334844,44.6826 L60.2334844,58.4786 C60.2334844,60.3826 58.6884844,61.9276 56.7844844,61.9276 L37.0764844,61.9276 C35.1714844,61.9276 33.6274844,60.3826 33.6274844,58.4786 L33.6274844,44.6826 C33.6274844,42.7786 35.1714844,41.2336 37.0764844,41.2336 L56.7844844,41.2336 C58.6884844,41.2336 60.2334844,42.7786 60.2334844,44.6826 Z" id="Stroke-1"></path>
                <path d="M43.4658844,38.6904 L43.4658844,37.0614 C43.4658844,36.2904 44.0908844,35.6654 44.8618844,35.6654 L48.1508844,35.6654 C48.9208844,35.6654 49.5458844,36.2904 49.5458844,37.0614 L49.5458844,38.6904" id="Stroke-3"></path>
                <path d="M39.6269844,44.165 C39.6269844,45.546 38.5079844,46.665 37.1269844,46.665" id="Stroke-5"></path>
                <path d="M56.6269844,46.665 C55.2459844,46.665 54.1269844,45.546 54.1269844,44.165" id="Stroke-7"></path>
                <path d="M54.1269844,58.665 C54.1269844,57.284 55.2459844,56.165 56.6269844,56.165" id="Stroke-9"></path>
                <path d="M37.1269844,56.165 C38.5079844,56.165 39.6269844,57.284 39.6269844,58.665" id="Stroke-11"></path>
                <path d="M30.8076844,16.5488 L22.6386844,18.5668 L13.9876844,15.3898 L8.00068435,16.5608 C7.88268435,16.5848 23.0636844,25.6248 23.0636844,25.6248 L37.1796844,24.7758 L56.7736844,20.7628 C61.3776844,19.8198 63.4216844,18.3348 63.0296844,16.4198 C62.5696844,14.1718 52.0856844,11.5158 48.8896844,12.1698 C46.3976844,12.6808 40.0726844,13.9758 40.0726844,13.9758" id="Stroke-13"></path>
                <polyline id="Stroke-15" points="34.7441844 19.583 24.7691844 11.52 32.1861844 10 44.8791844 17.508"></polyline>
            </g>
        </g>
    </g>
</svg>