<?xml version="1.0" encoding="UTF-8"?>
<svg width="60px" height="60px" viewBox="0 0 60 60" version="1.1" xmlns="http://www.w3.org/2000/svg" xmlns:xlink="http://www.w3.org/1999/xlink">
    <title>icon/60x60/www</title>
    <g id="icon/60x60/www" stroke="none" stroke-width="1" fill="none" fill-rule="evenodd">
        <rect id="Rectangle" fill="#00153B" x="3" y="17" width="54" height="27" rx="2"></rect>
        <g id="Group" transform="translate(7.000000, 22.000000)">
            <path d="M19.1679198,11 L20.6215539,8.43902439 C20.9097744,7.92682927 21.2481203,7.30487805 21.5112782,6.79268293 L21.5363409,6.79268293 C21.6115288,7.31707317 21.7117794,7.87804878 21.8245614,8.45121951 L22.3383459,11 L23.4411028,11 L26.6741855,5 L25.4711779,5 L24.0676692,7.68292683 C23.7418546,8.30487805 23.4285714,8.91463415 23.1278195,9.52439024 L23.1027569,9.52439024 C23.0025063,8.91463415 22.8897243,8.30487805 22.764411,7.67073171 L22.2380952,5 L21.4486216,5 L19.9448622,7.67073171 C19.5814536,8.31707317 19.2556391,8.91463415 18.9298246,9.52439024 L18.9047619,9.52439024 C18.8295739,8.95121951 18.7293233,8.29268293 18.6290727,7.67073171 L18.2030075,5 L17,5 L18.0526316,11 L19.1679198,11 Z M29.3308271,11 L30.7844612,8.43902439 C31.0726817,7.92682927 31.4110276,7.30487805 31.6741855,6.79268293 L31.6992481,6.79268293 C31.7744361,7.31707317 31.8746867,7.87804878 31.9874687,8.45121951 L32.5012531,11 L33.60401,11 L36.8370927,5 L35.6340852,5 L34.2305764,7.68292683 C33.9047619,8.30487805 33.5914787,8.91463415 33.2907268,9.52439024 L33.2656642,9.52439024 C33.1654135,8.91463415 33.0526316,8.30487805 32.9273183,7.67073171 L32.4010025,5 L31.6115288,5 L30.1077694,7.67073171 C29.7443609,8.31707317 29.4185464,8.91463415 29.0927318,9.52439024 L29.0676692,9.52439024 C28.9924812,8.95121951 28.8922306,8.29268293 28.7919799,7.67073171 L28.3659148,5 L27.1629073,5 L28.2155388,11 L29.3308271,11 Z M39.4937343,11 L40.9473684,8.43902439 C41.235589,7.92682927 41.5739348,7.30487805 41.8370927,6.79268293 L41.8621554,6.79268293 C41.9373434,7.31707317 42.037594,7.87804878 42.1503759,8.45121951 L42.6641604,11 L43.7669173,11 L47,5 L45.7969925,5 L44.3934837,7.68292683 C44.0676692,8.30487805 43.754386,8.91463415 43.4536341,9.52439024 L43.4285714,9.52439024 C43.3283208,8.91463415 43.2155388,8.30487805 43.0902256,7.67073171 L42.5639098,5 L41.7744361,5 L40.2706767,7.67073171 C39.9072682,8.31707317 39.5814536,8.91463415 39.2556391,9.52439024 L39.2305764,9.52439024 C39.1553885,8.95121951 39.0551378,8.29268293 38.9548872,7.67073171 L38.5288221,5 L37.3258145,5 L38.3784461,11 L39.4937343,11 Z" id="www" fill="#2EB598" fill-rule="nonzero"></path>
            <circle id="Oval" stroke="#2EB598" cx="4.5" cy="8.5" r="4.5"></circle>
            <line x1="13.5" y1="0.5" x2="13.5" y2="15.5" id="Line-5" stroke="#FAFAFA" stroke-linecap="square"></line>
        </g>
    </g>
</svg>