<?xml version="1.0" encoding="UTF-8"?>
<svg width="60px" height="60px" viewBox="0 0 60 60" version="1.1" xmlns="http://www.w3.org/2000/svg" xmlns:xlink="http://www.w3.org/1999/xlink">
    <title>icon/nav-menu/my-profile@1x</title>
    <g id="icon/nav-menu/my-profile" stroke="none" stroke-width="1" fill="none" fill-rule="evenodd">
        <g id="Group-3" transform="translate(6.000000, 6.000000)" stroke-width="2">
            <circle id="Oval" stroke="#2EB598" cx="24" cy="24" r="24"></circle>
            <path d="M24.6481754,40.9296491 C29.4036491,40.9296491 28.546807,40.2320078 28.546807,26.9933352 C28.546807,20.8243786 22.2852982,21.1121157 19.7240351,18.4892815 C18.4638596,17.1988123 17.6842105,15.41587 17.6842105,13.4467681 C17.6842105,11.4776663 18.4638596,9.69511924 19.7240351,8.40425479 C20.9842105,7.11418083 22.7252982,6.31578947 24.6481754,6.31578947 L24.6153684,6.31578947 C26.5382456,6.31578947 28.2793333,7.11418083 29.5395088,8.40425479 C30.7996842,9.69511924 31.5789474,11.4776663 31.5789474,13.4467681 C31.5789474,15.41587 30.7996842,17.1988123 29.5395088,18.4892815 C26.9782456,21.1121157 20.7167368,20.8243786 20.7167368,26.9933352 C20.7167368,40.2320078 19.8598947,40.9296491 24.6153684,40.9296491 L24.6481754,40.9296491 Z" id="Stroke-1" stroke="#FFFFFF" stroke-linejoin="round"></path>
        </g>
    </g>
</svg>