<?xml version="1.0" encoding="UTF-8"?>
<svg width="60px" height="60px" viewBox="0 0 60 60" version="1.1" xmlns="http://www.w3.org/2000/svg" xmlns:xlink="http://www.w3.org/1999/xlink">
    <title>icon/nav-menu/notifications@1x</title>
    <g id="icon/nav-menu/notifications" stroke="none" stroke-width="1" fill="none" fill-rule="evenodd">
        <g id="bel" transform="translate(14.000000, 8.000000)">
            <path d="M13.7029297,0.9015 L5.67192972,7.0365 C1.21592972,10.4405 -0.865070275,16.1175 0.334929725,21.5945 L2.48692972,31.4165 C2.92892972,33.4305 4.71192972,34.8655 6.77392972,34.8655 L25.9609297,34.8655 C28.0229297,34.8655 29.8069297,33.4305 30.2479297,31.4165 L32.3999297,21.5945 C33.5999297,16.1175 31.5189297,10.4405 27.0629297,7.0365 L19.0319297,0.9015 C17.4589297,-0.3005 15.2759297,-0.3005 13.7029297,0.9015" id="Fill-1"></path>
            <path d="M13.7029297,0.9015 L5.67192972,7.0365 C1.21592972,10.4405 -0.865070275,16.1175 0.334929725,21.5945 L2.48692972,31.4165 C2.92892972,33.4305 4.71192972,34.8655 6.77392972,34.8655 L25.9609297,34.8655 C28.0229297,34.8655 29.8069297,33.4305 30.2479297,31.4165 L32.3999297,21.5945 C33.5999297,16.1175 31.5189297,10.4405 27.0629297,7.0365 L19.0319297,0.9015 C17.4589297,-0.3005 15.2759297,-0.3005 13.7029297,0.9015 Z" id="Stroke-3" stroke="#2EB598" stroke-width="2" stroke-linecap="round" stroke-linejoin="round"></path>
            <path d="M19.3675297,40.8653 C19.3675297,42.5223 18.0245297,43.8653 16.3675297,43.8653 C14.7105297,43.8653 13.3675297,42.5223 13.3675297,40.8653 C13.3675297,39.2093 14.7105297,37.8653 16.3675297,37.8653 C18.0245297,37.8653 19.3675297,39.2093 19.3675297,40.8653" id="Fill-5"></path>
            <path d="M19.3675297,40.8653 C19.3675297,42.5223 18.0245297,43.8653 16.3675297,43.8653 C14.7105297,43.8653 13.3675297,42.5223 13.3675297,40.8653 C13.3675297,39.2093 14.7105297,37.8653 16.3675297,37.8653 C18.0245297,37.8653 19.3675297,39.2093 19.3675297,40.8653 Z" id="Stroke-7" stroke="#FFFFFF" stroke-width="2" stroke-linecap="round" stroke-linejoin="round"></path>
            <line x1="7.36752972" y1="26.5187" x2="25.3675297" y2="26.5187" id="Fill-9" fill="#FFFFFF"></line>
            <line x1="7.36752972" y1="26.5187" x2="25.3675297" y2="26.5187" id="Stroke-11" stroke="#A6AEBB" stroke-width="2" stroke-linecap="round" stroke-linejoin="round"></line>
        </g>
        <g id="Group" transform="translate(30.000000, 0.000000)">
            <rect id="Rectangle" fill="#DC0606" x="0" y="0" width="26" height="18" rx="9"></rect>
            <text id="10" font-family="AzoSans-Regular, Azo Sans" font-size="10" font-weight="normal" line-spacing="10" fill="#FFFFFF">
                <tspan x="7" y="14">10</tspan>
            </text>
        </g>
    </g>
</svg>