<?xml version="1.0" encoding="UTF-8"?>
<svg width="60px" height="60px" viewBox="0 0 60 60" version="1.1" xmlns="http://www.w3.org/2000/svg" xmlns:xlink="http://www.w3.org/1999/xlink">
    <title>icon/nav-menu/support@1x</title>
    <g id="icon/nav-menu/support" stroke="none" stroke-width="1" fill="none" fill-rule="evenodd">
        <g id="Group-3" transform="translate(6.000000, 6.000000)" stroke="#2EB598" stroke-width="2">
            <circle id="Oval" cx="24" cy="24" r="24"></circle>
        </g>
        <path d="M31.59,34.66 L31.59,33.61 C31.59,33.11 31.625,32.69 31.695,32.35 C31.765,32.01 31.88,31.7 32.04,31.42 C32.2,31.14 32.42,30.865 32.7,30.595 C32.98,30.325 33.32,30.02 33.72,29.68 C34.14,29.32 34.53,28.97 34.89,28.63 C35.25,28.29 35.555,27.925 35.805,27.535 C36.055,27.145 36.25,26.71 36.39,26.23 C36.53,25.75 36.6,25.19 36.6,24.55 C36.6,23.65 36.44,22.855 36.12,22.165 C35.8,21.475 35.36,20.895 34.8,20.425 C34.24,19.955 33.595,19.6 32.865,19.36 C32.135,19.12 31.35,19 30.51,19 C29.67,19 28.88,19.125 28.14,19.375 C27.4,19.625 26.745,19.99 26.175,20.47 C25.605,20.95 25.13,21.535 24.75,22.225 C24.37,22.915 24.12,23.69 24,24.55 L24,24.55 L26.88,24.88 C26.98,23.96 27.33,23.18 27.93,22.54 C28.53,21.9 29.33,21.58 30.33,21.58 C31.29,21.58 32.075,21.865 32.685,22.435 C33.295,23.005 33.6,23.77 33.6,24.73 C33.6,25.43 33.455,26.005 33.165,26.455 C32.875,26.905 32.51,27.32 32.07,27.7 L32.07,27.7 L30.96,28.75 C30.62,29.07 30.315,29.385 30.045,29.695 C29.775,30.005 29.545,30.33 29.355,30.67 C29.165,31.01 29.02,31.39 28.92,31.81 C28.82,32.23 28.77,32.7 28.77,33.22 L28.77,33.22 L28.77,34.66 L31.59,34.66 Z M30.33,40.87 C30.91,40.87 31.39,40.67 31.77,40.27 C32.15,39.87 32.34,39.41 32.34,38.89 C32.34,38.35 32.15,37.89 31.77,37.51 C31.39,37.13 30.91,36.94 30.33,36.94 C29.75,36.94 29.27,37.135 28.89,37.525 C28.51,37.915 28.32,38.38 28.32,38.92 C28.32,39.44 28.515,39.895 28.905,40.285 C29.295,40.675 29.77,40.87 30.33,40.87 Z" id="?" fill="#FFFFFF" fill-rule="nonzero"></path>
    </g>
</svg>